<svg id="visual" viewBox="0 0 1200 630" width="1200" height="630" xmlns="http://www.w3.org/2000/svg" xmlns:xlink="http://www.w3.org/1999/xlink" version="1.1"><path d="M0 7L25 14.3C50 21.7 100 36.3 150 39.5C200 42.7 250 34.3 300 30.2C350 26 400 26 450 31.3C500 36.7 550 47.3 600 49.5C650 51.7 700 45.3 750 35.7C800 26 850 13 900 8.8C950 4.7 1000 9.3 1050 16.8C1100 24.3 1150 34.7 1175 39.8L1200 45L1200 0L1175 0C1150 0 1100 0 1050 0C1000 0 950 0 900 0C850 0 800 0 750 0C700 0 650 0 600 0C550 0 500 0 450 0C400 0 350 0 300 0C250 0 200 0 150 0C100 0 50 0 25 0L0 0Z" fill="#8bc6f9"></path><path d="M0 20L25 29.5C50 39 100 58 150 72.7C200 87.3 250 97.7 300 94.5C350 91.3 400 74.7 450 71.5C500 68.3 550 78.7 600 91.2C650 103.7 700 118.3 750 124.7C800 131 850 129 900 111.2C950 93.3 1000 59.7 1050 57.5C1100 55.3 1150 84.7 1175 99.3L1200 114L1200 43L1175 37.8C1150 32.7 1100 22.3 1050 15.2C1000 8 950 4 900 8.2C850 12.3 800 24.7 750 34C700 43.3 650 49.7 600 47.5C550 45.3 500 34.7 450 29.3C400 24 350 24 300 28.2C250 32.3 200 40.7 150 37.5C100 34.3 50 19.7 25 12.3L0 5Z" fill="#6cb8f8"></path><path d="M0 203L25 208.2C50 213.3 100 223.7 150 210C200 196.3 250 158.7 300 154.5C350 150.3 400 179.7 450 182.8C500 186 550 163 600 158.8C650 154.7 700 169.3 750 186C800 202.7 850 221.3 900 224.5C950 227.7 1000 215.3 1050 201.8C1100 188.3 1150 173.7 1175 166.3L1200 159L1200 112L1175 97.3C1150 82.7 1100 53.3 1050 55.5C1000 57.7 950 91.3 900 109.2C850 127 800 129 750 122.7C700 116.3 650 101.7 600 89.2C550 76.7 500 66.3 450 69.5C400 72.7 350 89.3 300 92.5C250 95.7 200 85.3 150 70.7C100 56 50 37 25 27.5L0 18Z" fill="#4ca7f0"></path><path d="M0 259L25 261.2C50 263.3 100 267.7 150 252C200 236.3 250 200.7 300 197.5C350 194.3 400 223.7 450 221.5C500 219.3 550 185.7 600 178.3C650 171 700 190 750 204.7C800 219.3 850 229.7 900 237C950 244.3 1000 248.7 1050 235.2C1100 221.7 1150 190.3 1175 174.7L1200 159L1200 157L1175 164.3C1150 171.7 1100 186.3 1050 199.8C1000 213.3 950 225.7 900 222.5C850 219.3 800 200.7 750 184C700 167.3 650 152.7 600 156.8C550 161 500 184 450 180.8C400 177.7 350 148.3 300 152.5C250 156.7 200 194.3 150 208C100 221.7 50 211.3 25 206.2L0 201Z" fill="#3f8dcf"></path><path d="M0 259L25 261.2C50 263.3 100 267.7 150 256.2C200 244.7 250 217.3 300 224.7C350 232 400 274 450 271.8C500 269.7 550 223.3 600 216C650 208.7 700 240.3 750 261.3C800 282.3 850 292.7 900 293.7C950 294.7 1000 286.3 1050 269.7C1100 253 1150 228 1175 215.5L1200 203L1200 157L1175 172.7C1150 188.3 1100 219.7 1050 233.2C1000 246.7 950 242.3 900 235C850 227.7 800 217.3 750 202.7C700 188 650 169 600 176.3C550 183.7 500 217.3 450 219.5C400 221.7 350 192.3 300 195.5C250 198.7 200 234.3 150 250C100 265.7 50 261.3 25 259.2L0 257Z" fill="#377ebb"></path><path d="M0 322L25 316.8C50 311.7 100 301.3 150 287.7C200 274 250 257 300 262.2C350 267.3 400 294.7 450 285.3C500 276 550 230 600 225.8C650 221.7 700 259.3 750 280.3C800 301.3 850 305.7 900 307.8C950 310 1000 310 1050 298.3C1100 286.7 1150 263.3 1175 251.7L1200 240L1200 201L1175 213.5C1150 226 1100 251 1050 267.7C1000 284.3 950 292.7 900 291.7C850 290.7 800 280.3 750 259.3C700 238.3 650 206.7 600 214C550 221.3 500 267.7 450 269.8C400 272 350 230 300 222.7C250 215.3 200 242.7 150 254.2C100 265.7 50 261.3 25 259.2L0 257Z" fill="#377ebb"></path><path d="M0 335L25 336C50 337 100 339 150 364.2C200 389.3 250 437.7 300 439.8C350 442 400 398 450 369.7C500 341.3 550 328.7 600 327.7C650 326.7 700 337.3 750 361.5C800 385.7 850 423.3 900 436.8C950 450.3 1000 439.7 1050 421.8C1100 404 1150 379 1175 366.5L1200 354L1200 238L1175 249.7C1150 261.3 1100 284.7 1050 296.3C1000 308 950 308 900 305.8C850 303.7 800 299.3 750 278.3C700 257.3 650 219.7 600 223.8C550 228 500 274 450 283.3C400 292.7 350 265.3 300 260.2C250 255 200 272 150 285.7C100 299.3 50 309.7 25 314.8L0 320Z" fill="#3f8dcf"></path><path d="M0 555L25 548.8C50 542.7 100 530.3 150 524.2C200 518 250 518 300 531.7C350 545.3 400 572.7 450 570.5C500 568.3 550 536.7 600 532.3C650 528 700 551 750 560.5C800 570 850 566 900 562.8C950 559.7 1000 557.3 1050 548.8C1100 540.3 1150 525.7 1175 518.3L1200 511L1200 352L1175 364.5C1150 377 1100 402 1050 419.8C1000 437.7 950 448.3 900 434.8C850 421.3 800 383.7 750 359.5C700 335.3 650 324.7 600 325.7C550 326.7 500 339.3 450 367.7C400 396 350 440 300 437.8C250 435.7 200 387.3 150 362.2C100 337 50 335 25 334L0 333Z" fill="#4ca7f0"></path><path d="M0 625L25 614.5C50 604 100 583 150 570.3C200 557.7 250 553.3 300 561.7C350 570 400 591 450 591C500 591 550 570 600 565.8C650 561.7 700 574.3 750 582.8C800 591.3 850 595.7 900 597.8C950 600 1000 600 1050 593.7C1100 587.3 1150 574.7 1175 568.3L1200 562L1200 509L1175 516.3C1150 523.7 1100 538.3 1050 546.8C1000 555.3 950 557.7 900 560.8C850 564 800 568 750 558.5C700 549 650 526 600 530.3C550 534.7 500 566.3 450 568.5C400 570.7 350 543.3 300 529.7C250 516 200 516 150 522.2C100 528.3 50 540.7 25 546.8L0 553Z" fill="#6cb8f8"></path><path d="M0 631L25 631C50 631 100 631 150 631C200 631 250 631 300 631C350 631 400 631 450 631C500 631 550 631 600 631C650 631 700 631 750 631C800 631 850 631 900 631C950 631 1000 631 1050 631C1100 631 1150 631 1175 631L1200 631L1200 560L1175 566.3C1150 572.7 1100 585.3 1050 591.7C1000 598 950 598 900 595.8C850 593.7 800 589.3 750 580.8C700 572.3 650 559.7 600 563.8C550 568 500 589 450 589C400 589 350 568 300 559.7C250 551.3 200 555.7 150 568.3C100 581 50 602 25 612.5L0 623Z" fill="#8bc6f9"></path></svg>