<?xml version="1.0" encoding="UTF-8" standalone="no"?>
<!-- Created with Inkscape (http://www.inkscape.org/) -->

<svg
   width="48"
   height="48"
   viewBox="0 0 12.7 12.7"
   version="1.1"
   id="svg408"
   inkscape:version="1.1.2 (0a00cf5339, 2022-02-04)"
   sodipodi:docname="favicon.svg"
   xmlns:inkscape="http://www.inkscape.org/namespaces/inkscape"
   xmlns:sodipodi="http://sodipodi.sourceforge.net/DTD/sodipodi-0.dtd"
   xmlns="http://www.w3.org/2000/svg"
   xmlns:svg="http://www.w3.org/2000/svg">
  <sodipodi:namedview
     id="namedview410"
     pagecolor="#505050"
     bordercolor="#eeeeee"
     borderopacity="1"
     inkscape:pageshadow="0"
     inkscape:pageopacity="0"
     inkscape:pagecheckerboard="0"
     inkscape:document-units="mm"
     showgrid="false"
     units="px"
     inkscape:zoom="12.030079"
     inkscape:cx="16.37562"
     inkscape:cy="19.409682"
     inkscape:window-width="1920"
     inkscape:window-height="1016"
     inkscape:window-x="0"
     inkscape:window-y="27"
     inkscape:window-maximized="1"
     inkscape:current-layer="layer1" />
  <defs
     id="defs405" />
  <g
     inkscape:label="Layer 1"
     inkscape:groupmode="layer"
     id="layer1">
    <g
       id="g841"
       transform="matrix(0.96554878,0,0,0.96554878,-0.45126975,-0.35042875)">
      <path
         fill="#2b2c2b"
         opacity="1"
         stroke="none"
         d="M 10.700224,4.9747695 C 9.9804084,5.0825694 9.2605784,5.1902726 8.5408224,5.2984706 c -0.03353,0.00504 -0.0666,0.013688 -0.09953,0.022022 -0.480556,0.1215971 -0.523623,0.089508 -0.542363,-0.4047667 -0.01771,-0.46701 -0.262747,-0.6878685 -0.716993,-0.6462341 -0.190476,0.017458 -0.413537,0.2794278 -0.457446,0.5181128 -0.04671,0.253908 0.02311,0.4386256 0.283493,0.513713 0.472453,0.1362441 0.94454,0.2748373 1.420952,0.3960496 1.055849,0.2686374 1.8335476,0.8320859 2.1110126,1.9433385 0.02867,0.1147981 0.06386,0.2279676 0.07456,0.3710487 -0.02552,0.5763512 -0.02959,1.1235473 -0.03366,1.670743 -0.05054,0.274506 -0.05606,0.5678286 -0.161218,0.8195146 -0.204928,0.490469 -0.418005,0.989753 -0.7132986,1.427671 -0.595224,0.88271 -1.453918,1.376516 -2.564447,1.487517 -0.553284,-0.0034 -1.061167,0.0011 -1.569049,0.0056 -0.740753,-0.06066 -1.395168,-0.310716 -1.87858,-0.899369 -0.449272,-0.547079 -0.637483,-1.195658 -0.692699,-1.89181 -0.020116,-0.253611 -0.060025,-0.505707 -0.092935,-0.7582302 -0.01928,-0.1479215 0.0488,-0.2205327 0.190845,-0.2434339 0.462328,-0.074537 0.923155,-0.1591442 1.386551,-0.2260823 0.454872,-0.065709 0.913761,-0.1044632 1.367668,-0.1755863 0.191502,-0.030007 0.239229,0.043119 0.26121,0.2093933 0.02995,0.2265689 0.06309,0.4558409 0.128401,0.6739094 0.110576,0.369208 0.38359,0.52572 0.75984,0.467336 0.425783,-0.06607 0.791864,-0.6788611 0.615356,-1.0689238 C 7.5700494,9.4028997 7.4291274,9.3099828 7.3102724,9.267293 6.7916194,9.081004 6.2602414,8.9297391 5.7434314,8.738829 5.1717014,8.5276302 4.6238664,8.2692798 4.2784374,7.7240517 3.9626164,7.2255553 3.7905254,6.6851541 3.7837624,6.0926468 c -0.003,-0.2644349 -0.03153,-0.5292731 -0.02179,-0.7929432 0.008,-0.2176229 0.03393,-0.4394531 0.0894,-0.6495164 0.1472,-0.5573878 0.286724,-1.1208385 0.67424,-1.6121584 0.06526,-0.09053 0.102398,-0.1622338 0.139534,-0.2339377 0.01319,-0.019658 0.02638,-0.039316 0.06503,-0.070741 0.04674,-0.053387 0.06802,-0.095006 0.0893,-0.1366246 7.68e-4,-0.00979 0.0053,-0.017321 0.03565,-0.033773 0.03772,-0.029228 0.05338,-0.047274 0.06903,-0.065321 0.03735,-0.040576 0.07469,-0.081151 0.143531,-0.1314839 0.164065,-0.111611 0.07502,-0.1448362 -0.02044,-0.1514186 -0.178672,-0.012321 -0.358341,-0.010177 -0.518582,-0.023631 0.345998,-0.00958 0.672982,-0.00958 1.017821,-0.00958 -0.02236,0.07956 -0.03767,0.134033 -0.05362,0.1859932 -6.43e-4,-0.00251 0.0026,0.00153 -0.01626,8.153e-4 -0.25106,0.2297655 -0.517912,0.4349146 -0.708547,0.6957649 -0.459395,0.6285996 -0.687091,1.3582285 -0.754158,2.1262884 -0.06211,0.7112732 -0.04826,1.4238447 0.279112,2.0884005 0.176338,0.3579655 0.38397,0.6983233 0.759963,0.8717142 0.418953,0.1932027 0.850384,0.3602776 1.280667,0.5277166 0.405416,0.1577626 0.823053,0.2859957 1.220996,0.4599704 0.123525,0.054004 0.26351,0.2031575 0.287131,0.3291525 0.08738,0.4660931 -0.02259,0.879372 -0.428918,1.183134 -0.49972,0.373578 -1.248593,0.132402 -1.410427,-0.466155 -0.0446,-0.164951 -0.08032,-0.333168 -0.106476,-0.5019995 -0.02658,-0.1715577 -0.114687,-0.2357269 -0.283772,-0.2095471 -0.4649,0.071978 -0.930989,0.1365691 -1.395011,0.2136904 -0.09549,0.015871 -0.184048,0.073457 -0.293914,0.1169904 -0.05562,0.00745 -0.09314,0.00973 -0.14856,0.00241 -0.530944,-0.075099 -0.62498,-0.00354 -0.590938,0.5039158 0.04754,0.708612 0.191862,1.402732 0.625436,1.981211 0.365306,0.487394 0.857262,0.804416 1.520854,0.808017 0.115579,0.01517 0.210536,0.03061 0.308601,0.06072 0.08923,0.01608 0.175355,0.01749 0.285482,0.0166 0.334129,-10e-4 0.644256,2.57e-4 0.96388,0.0088 0.03767,-2.57e-4 0.06585,-0.0078 0.112241,-0.02008 0.08055,-0.0105 0.142878,-0.01621 0.228703,-0.01653 0.822236,-0.03713 1.437717,-0.441949 1.976316,-0.991563 0.06073,-0.06198 0.08491,-0.159774 0.133935,-0.234906 0.0079,0.0061 -0.0078,-0.0065 0.01053,-0.0063 0.07861,-0.05534 0.159872,-0.09982 0.195675,-0.168126 0.200788,-0.383082 0.404756,-0.76574 0.5775366,-1.16168 0.07388,-0.169307 0.07497,-0.370383 0.109041,-0.573612 0.0056,-0.037881 0.01121,-0.059174 0.03281,-0.088614 0.04329,-0.04942 0.09236,-0.089528 0.09465,-0.1321465 0.02542,-0.47366 0.04617,-0.9476339 0.05984,-1.4217651 0.0014,-0.048768 -0.05116,-0.099091 -0.08328,-0.1665903 -0.0055,-0.054737 -0.0063,-0.091576 0.0023,-0.1440806 C 10.286715,7.80205 10.22549,7.5606952 10.164351,7.3193189 10.11167,7.1113324 10.050356,6.9096913 9.8066134,6.8318786 c -0.0057,-0.00514 -0.01033,-0.019788 -0.0099,-0.038877 -0.158059,-0.3082286 -0.383014,-0.507857 -0.719635,-0.5571021 0.0016,-0.00213 0.002,0.00317 -0.0049,-0.013849 -0.445449,-0.3078279 -0.942188,-0.4020287 -1.465007,-0.4421209 -0.02632,0.00364 -0.04093,6.43e-4 -0.06608,-0.022304 C 7.3947364,5.695658 7.2511234,5.6660761 7.1265784,5.600358 6.9209524,5.4918554 6.6491154,5.406107 6.5450014,5.2287096 6.3065404,4.8224012 6.5844714,4.23201 6.9543364,4.1065677 c 0.08512,-0.028868 0.159629,-0.088996 0.254749,-0.1384175 0.03716,-0.00276 0.05858,-0.00184 0.09132,0.00783 0.05537,0.00352 0.09941,-0.00171 0.159587,-0.00783 0.03701,0.00393 0.05789,0.00876 0.0873,0.027617 0.130856,0.077294 0.253188,0.1405571 0.367521,0.2117967 -0.008,0.00798 0.0079,-0.00807 0.0072,0.011555 0.08031,0.2670172 0.150013,0.5191159 0.249907,0.7586199 0.02609,0.062564 0.152079,0.1296178 0.222064,0.120109 0.403463,-0.054819 0.80483,-0.1270845 1.204939,-0.2037166 0.194438,-0.03724 0.384595,-0.096823 0.5926316,-0.1504921 0.03785,-0.00454 0.05975,-0.00487 0.09842,0.00453 0.392824,0.047119 0.505188,-0.030834 0.430783,-0.3828695 C 10.611911,3.8503051 10.467264,3.3393272 10.289164,2.8441581 10.211174,2.6273125 10.09042,2.383057 9.8142844,2.3093185 c -0.0018,4.321e-4 -6.38e-4,-0.00309 -5.71e-4,-0.018562 -0.0035,-0.035736 -0.0071,-0.055999 3.6e-4,-0.089486 0.0221,-0.045354 0.03324,-0.077483 0.0618,-0.1157052 0.09092,-0.00257 0.1644156,9.516e-4 0.2399726,0.017719 0.01969,0.043233 0.03733,0.073221 0.04844,0.1171111 0.01784,0.056213 0.0422,0.098524 0.06656,0.1408345 0,0 -0.0034,0.00342 -0.0022,0.017688 0.03335,0.038898 0.06552,0.06353 0.09768,0.088163 0,-2e-7 0.0019,0.017193 0.0024,0.045097 0.06491,0.1220879 0.129315,0.2162725 0.193717,0.3104568 0.10433,0.2853219 0.208659,0.5706438 0.321325,0.8779218 0.01251,0.029324 0.02201,0.039537 0.01987,0.043543 -0.0073,0.013724 -0.01872,0.02527 -0.02857,0.037646 0,0 -0.0022,-0.0056 -0.0035,0.017133 0.03132,0.2482873 0.04821,0.4775887 0.100826,0.6983746 0.05617,0.2356982 0.01395,0.400134 -0.232269,0.4775233 z"
         id="path8"
         style="stroke-width:0.0514379" />
      <path
         fill="#2f3537"
         opacity="1"
         stroke="none"
         d="m 5.4500454,1.0742803 c 0.0856,-0.00235 0.17121,-0.00465 0.256812,-0.00705 0.167105,-0.0047 0.239387,-0.090433 0.254255,-0.25742579 0.0086,-0.096303 0.06445,-0.1883955 0.09903,-0.2823831 0.08376,0.05624 0.167529,0.1124797 0.263888,0.1771758 0.14333,-0.2984954 0.41777,-0.2105219 0.693908,-0.145239 0.05046,0.1691029 0.08445,0.3057018 0.100112,0.44681579 -0.04337,0.00446 -0.06841,0.00441 -0.09284,-0.012247 -0.01879,-0.066792 -0.03819,-0.1169852 -0.06792,-0.1835948 -0.238659,-0.171153 -0.34558,-0.1420123 -0.538428,0.1273346 -0.100661,0.045533 -0.182797,0.086199 -0.26668,0.1296412 -0.0017,0.00278 -0.0071,0.00662 -0.01642,0.014268 -0.02038,0.020437 -0.02625,0.035265 -0.02839,0.067321 -0.0047,0.035196 -0.008,0.055207 -0.03123,0.072571 -0.207157,0.004 -0.394434,0.010654 -0.597306,0.018654 -0.04355,0.014521 -0.0715,0.027693 -0.123071,0.041695 -0.226795,0.00197 -0.430089,0.00779 -0.633111,0.00271 -0.150222,-0.00376 -0.218058,0.057282 -0.214246,0.2095333 0.0042,0.1691644 -0.0014,0.338576 -0.01336,0.5198106 -0.03509,0.05987 -0.05957,0.1078086 -0.0966,0.1374976 -0.024,-0.3544955 -0.03545,-0.6907411 -0.04691,-1.0269867 0,0 0.005,0.00434 0.02174,0.019155 0.178704,0.00676 0.340963,0.00271 0.502488,-0.010396 0.191755,-0.015553 0.382878,-0.038893 0.574275,-0.058858 z"
         id="path16"
         style="stroke-width:0.0514379" />
      <path
         fill="#303c40"
         opacity="1"
         stroke="none"
         d="m 8.2101764,0.75360781 c 0,0 0.0023,-0.018242 0.02012,-0.032481 0.03998,-0.049364 0.06212,-0.084488 0.08425,-0.1196124 0,0 -2.06e-4,-0.018599 0.02459,-0.027208 0.216194,-0.010402 0.407601,-0.012196 0.599009,-0.01399 0,0 -3.6e-4,0.00273 0.0052,0.010949 0.01431,0.020527 0.0247,0.03126 0.03672,0.040416 0.104938,0.3380976 0.314469,0.52178709 0.720733,0.48685879 0.276796,0.025934 0.5200876,0.022945 0.7621706,0.03864 0.07874,0.0051 0.15431,0.059022 0.217223,0.088879 -0.03012,0.033852 -0.05777,0.068655 -0.06023,0.1051542 -0.015,0.2227207 -0.02427,0.4458271 -0.04007,0.6458568 -0.006,-0.2093335 -0.0073,-0.3957194 -0.0092,-0.5953295 -0.01153,-0.026421 -0.02251,-0.039619 -0.05433,-0.059162 -0.280964,-0.00655 -0.5410946,-0.00675 -0.8213156,-0.014676 -0.06273,-0.00925 -0.105367,-0.01077 -0.164454,-0.021763 -0.157696,-0.010518 -0.298943,-0.011564 -0.448592,-0.027281 -0.09279,-0.1389408 -0.177177,-0.26321009 -0.265143,-0.40634169 -0.125835,-0.217697 -0.26119,-0.1782882 -0.417279,-0.034896 -0.06904,0.042096 -0.122744,0.078322 -0.178327,0.092262 -0.0049,-0.06695 -0.008,-0.1116134 -0.01108,-0.1562769 z"
         id="path18"
         style="stroke-width:0.0514379" />
      <path
         fill="#384449"
         opacity="1"
         stroke="none"
         d="m 8.1968664,0.75900901 c 0.01638,0.039262 0.01944,0.083926 0.02193,0.1502171 -5.87e-4,0.021628 -9.06e-4,0.016417 -0.01148,0.027796 -0.02037,0.040555 -0.03017,0.06973 -0.0419,0.11196439 -0.0032,0.021759 -0.0045,0.030461 -0.02067,0.035029 -0.03506,-0.00777 -0.05531,-0.011402 -0.08791,-0.025936 -0.0616,-0.036016 -0.110842,-0.061132 -0.161285,-0.10321099 -0.0066,-0.050533 -0.01196,-0.084101 -0.01437,-0.1342146 -0.02529,-0.044872 -0.05354,-0.0732 -0.102604,-0.1035855 -0.304922,-0.062447 -0.357979,0.1675885 -0.470095,0.34444939 -0.04688,0.00217 -0.07818,0.00288 -0.123171,-0.00209 -0.02349,-0.00706 -0.03328,-0.00845 -0.04331,-0.021976 -2.47e-4,-0.012131 -0.0056,-0.035798 -0.0056,-0.035798 -0.03399,-0.13659889 -0.06798,-0.27319779 -0.101636,-0.42916419 0.05894,0.038713 0.117538,0.096793 0.190082,0.1686923 0.145351,-0.3502845 0.450143,-0.237698 0.702797,-0.2216258 0.09014,0.00573 0.170896,0.1589542 0.269245,0.2394525 z"
         id="path22"
         style="stroke-width:0.0514379" />
      <path
         fill="#b7b6b7"
         opacity="1"
         stroke="none"
         d="m 10.694312,1.2277947 c -0.07702,-0.031591 -0.152593,-0.085508 -0.23133,-0.090613 -0.242083,-0.015695 -0.4853746,-0.012707 -0.7391986,-0.035851 0.2861136,-0.021071 0.5832526,-0.025841 0.8803226,-0.023084 0.0531,4.938e-4 0.124123,0.016134 0.155745,0.052127 0.150812,0.1716556 0.08422,0.9834278 -0.110121,1.1539828 -0.02104,-0.030498 -0.01932,-0.052702 5.61e-4,-0.084638 0.02678,-0.3304632 0.0354,-0.6511929 0.04402,-0.9719229 z"
         id="path38"
         style="stroke-width:0.0514379" />
      <path
         fill="#929291"
         opacity="1"
         stroke="none"
         d="m 10.599549,9.6725751 c -0.01463,-0.5372733 -0.01056,-1.0844694 0.01301,-1.640336 0.139201,0.5387367 0.175316,1.0854406 -0.01301,1.640336 z"
         id="path54"
         style="stroke-width:0.0514379" />
      <path
         fill="#a9a9a7"
         opacity="1"
         stroke="none"
         d="m 10.72079,4.9732433 c 0.225654,-0.075863 0.267874,-0.2402988 0.211704,-0.475997 -0.05262,-0.2207859 -0.0695,-0.4500873 -0.09806,-0.6995551 0.09405,0.3458255 0.18405,0.7155639 0.280958,1.1136873 -0.170316,0.027475 -0.272176,0.043907 -0.394601,0.061865 z"
         id="path70"
         style="stroke-width:0.0514379" />
      <path
         fill="#868686"
         opacity="1"
         stroke="none"
         d="m 5.5858904,13.441174 c 0.494825,-0.0229 1.002708,-0.02737 1.534567,-0.0252 -0.366263,0.0364 -0.756182,0.07248 -1.146927,0.09221 -0.123728,0.0062 -0.24966,-0.03116 -0.38764,-0.06701 z"
         id="path78"
         style="stroke-width:0.0514379" />
      <path
         fill="#b7b6b7"
         opacity="1"
         stroke="none"
         d="m 4.3324934,1.1331829 c 0.0305,0.3274419 0.04195,0.6636875 0.0673,1.0279496 0.02103,0.040069 0.03131,0.048058 0.04718,0.06542 0.0063,0.021694 0.0101,0.029952 0.01393,0.038209 -0.210008,-0.014326 -0.195105,-0.1999056 -0.198007,-0.3181085 -0.0066,-0.2676471 0.03095,-0.5363767 0.06959,-0.81347 z"
         id="path110"
         style="stroke-width:0.0514379" />
      <path
         fill="#5a5958"
         opacity="1"
         stroke="none"
         d="m 4.4724644,2.2831323 c -0.01539,-0.026628 -0.01922,-0.034886 -0.0093,-0.060554 0.02466,-0.018906 0.03559,-0.020402 0.04652,-0.021898 0.179254,0.00387 0.358923,0.00173 0.537595,0.01405 0.09545,0.00658 0.184501,0.039808 0.0329,0.145273 -0.211398,-0.017092 -0.403766,-0.037795 -0.607689,-0.07687 z"
         id="path114"
         style="stroke-width:0.0514379" />
      <path
         fill="#b7b6b7"
         opacity="1"
         stroke="none"
         d="m 5.4383444,1.0565675 c -0.179696,0.037678 -0.370819,0.061017 -0.562574,0.07657 -0.161525,0.013101 -0.323784,0.017154 -0.504644,0.00791 0.116659,-0.032982 0.251905,-0.053241 0.387905,-0.063309 0.222279,-0.016454 0.44505,-0.02627 0.679313,-0.021173 z"
         id="path128"
         style="stroke-width:0.0514379" />
      <path
         fill="#303c40"
         opacity="1"
         stroke="none"
         d="m 10.632138,2.2094507 c -0.0017,0.022203 -0.0034,0.044407 3.09e-4,0.082514 -0.120198,0.025273 -0.24589,0.034644 -0.386577,0.056636 -0.03936,-0.029689 -0.06372,-0.072 -0.06,-0.1288384 0.114559,-0.016473 0.201044,-0.018418 0.307391,-0.018657 0.05953,0.00392 0.0992,0.00613 0.138865,0.00835 z"
         id="path130"
         style="stroke-width:0.0514379" />
      <path
         fill="#384449"
         opacity="1"
         stroke="none"
         d="m 8.9237294,0.54406581 c -0.176982,0.018044 -0.368389,0.019838 -0.583687,0.020984 0.173827,-0.012843 0.371544,-0.025039 0.583687,-0.020984 z"
         id="path140"
         style="stroke-width:0.0514379" />
      <path
         fill="#303c40"
         opacity="1"
         stroke="none"
         d="m 10.517449,2.8064351 c -0.05934,-0.077992 -0.123736,-0.1721768 -0.188785,-0.2856149 0.06081,0.076972 0.122263,0.1731972 0.188785,0.2856149 z"
         id="path148"
         style="stroke-width:0.0514379" />
      <path
         fill="#5a5958"
         opacity="1"
         stroke="none"
         d="m 4.6515794,2.8149852 c -0.02357,0.06081 -0.0607,0.1325134 -0.115623,0.2081164 0.02216,-0.063141 0.06211,-0.1301817 0.115623,-0.2081164 z"
         id="path150"
         style="stroke-width:0.0514379" />
      <path
         fill="#384449"
         opacity="1"
         stroke="none"
         d="m 8.3014644,0.61005861 c -0.009,0.02658 -0.03119,0.061705 -0.0688,0.1021861 0.0083,-0.027643 0.03198,-0.060642 0.0688,-0.1021861 z"
         id="path158"
         style="stroke-width:0.0514379" />
      <path
         fill="#5a5958"
         opacity="1"
         stroke="none"
         d="m 4.8062724,2.6072539 c -0.0081,0.03109 -0.02935,0.072709 -0.07002,0.1158785 0.006,-0.034083 0.03141,-0.069717 0.07002,-0.1158785 z"
         id="path160"
         style="stroke-width:0.0514379" />
      <path
         fill="#303c40"
         opacity="1"
         stroke="none"
         d="m 10.32244,2.4520376 c -0.02824,-0.0096 -0.06041,-0.034228 -0.09548,-0.074815 0.02858,0.00929 0.06007,0.034534 0.09548,0.074815 z"
         id="path164"
         style="stroke-width:0.0514379" />
      <path
         fill="#384449"
         opacity="1"
         stroke="none"
         d="m 8.9779594,0.59968751 c -0.0099,0.00284 -0.02029,-0.00789 -0.03515,-0.029663 0.01102,-0.00629 0.02406,0.00276 0.03515,0.029663 z"
         id="path180"
         style="stroke-width:0.0514379" />
      <path
         fill="#5a5958"
         opacity="1"
         stroke="none"
         d="m 4.9105524,2.5090841 c -0.0021,0.00659 -0.01771,0.02464 -0.0489,0.052002 0.0014,-0.00731 0.01835,-0.023928 0.0489,-0.052002 z"
         id="path184"
         style="stroke-width:0.0514379" />
      <path
         fill="#a9a9a7"
         opacity="1"
         stroke="none"
         d="m 10.832135,3.7663988 c 0.01286,0.00296 0.02426,-0.00858 0.03158,-0.022307 0.0021,-0.00401 -0.0074,-0.014219 -0.02438,-0.022886 -0.01197,0.00909 -0.01109,0.01947 -0.0072,0.045193 z"
         id="path186"
         style="stroke-width:0.0514379" />
      <path
         fill="#028ad0"
         opacity="1"
         stroke="none"
         d="m 6.8785174,13.177818 c -0.310127,-0.0013 -0.620254,-0.0025 -0.970813,-0.01224 -0.117675,-0.01247 -0.194917,-0.0165 -0.27216,-0.02053 -0.094957,-0.01544 -0.189914,-0.03088 -0.319391,-0.0589 -0.106994,-0.03671 -0.178614,-0.06388 -0.252076,-0.08448 -0.613525,-0.172075 -1.126451,-0.497294 -1.366271,-1.101384 -0.186823,-0.470594 -0.307646,-0.972687 -0.407864,-1.470828 -0.09444,-0.4694204 -0.06567,-0.4749335 0.406959,-0.5796672 0.03283,-0.00727 0.06385,-0.022703 0.09571,-0.034338 0.03751,-0.00227 0.07502,-0.00455 0.152096,-0.00842 0.522034,-0.073162 1.004204,-0.1468434 1.48708,-0.2155664 0.33636,-0.047872 0.333361,-0.044181 0.395213,0.2811178 0.0271,0.1425418 0.05957,0.2862668 0.11041,0.4216418 0.111064,0.295737 0.301761,0.515686 0.626212,0.588342 0.767573,0.171887 1.485076,-0.442748 1.427758,-1.2269416 C 7.9706164,9.3715087 7.8471224,9.1467668 7.5765904,9.0243318 7.4364504,8.9609079 7.2964834,8.8954146 7.1517174,8.844202 6.6032574,8.6501758 6.0481154,8.4740746 5.5047274,8.2669841 5.0824774,8.1060618 4.7031604,7.8706671 4.4934874,7.4428259 3.7937574,6.0150168 4.0047034,4.6302073 4.7390304,3.2950711 c 0.188905,-0.3434624 0.500966,-0.6191885 0.75645,-0.926032 0,0 -0.0033,-0.00404 0.01864,-0.00443 0.130576,-0.013375 0.239266,-0.02636 0.340206,-0.038418 0.101828,0.2152199 -0.01288,0.5162688 0.35124,0.5669116 0.294007,0.040892 0.43146,-0.1546307 0.591868,-0.3347907 0.235278,0.4019252 0.601557,0.4258149 0.873961,0.098531 0.03211,-0.038578 0.108117,-0.040619 0.162597,-0.04731 -4.63e-4,0.029263 0.004,0.045187 0.0073,0.071494 0.01633,0.043417 0.0376,0.075396 0.07527,0.1219293 0.285041,0.063416 0.561491,0.1387051 0.695167,-0.2173318 0.0068,-0.018156 0.0794,-0.011618 0.119845,0.00113 0.02711,0.067748 0.05574,0.1177908 0.09284,0.1855764 0.09478,0.032053 0.181098,0.046363 0.285364,0.053015 0.05442,-0.1817917 0.09089,-0.3559245 0.150854,-0.5264707 0.163666,-0.00543 0.303842,-0.01444 0.461215,-0.015188 0.0421,0.013024 0.067,0.017782 0.09191,0.02254 0,-2e-7 -0.0012,0.00352 0.0045,0.020014 0.5338216,0.6065581 0.7004736,1.3384092 0.8203076,2.0891883 0.02289,0.143414 -0.02026,0.2308194 -0.172733,0.2568169 -0.066,0.011253 -0.128418,0.043485 -0.192464,0.066188 -0.02191,3.343e-4 -0.04381,6.697e-4 -0.103999,3.189e-4 -0.131662,0.00791 -0.2259756,0.010844 -0.3182686,0.026057 -0.421567,0.069493 -0.84314,0.1392598 -1.263522,0.2154845 -0.205674,0.037294 -0.32258,0.00765 -0.374744,-0.2398425 -0.0405,-0.1921565 -0.189334,-0.3614799 -0.290015,-0.5409524 0,0 -0.0159,0.016042 -0.01341,-0.00829 -0.121853,-0.086048 -0.246193,-0.1477575 -0.370532,-0.2094679 -0.02088,-0.00483 -0.04177,-0.00965 -0.09008,-0.021846 -0.07148,-0.00247 -0.115543,0.00244 -0.159602,0.00734 -0.02143,-9.186e-4 -0.04285,-0.00184 -0.100565,-0.00426 -0.633556,-0.014676 -0.985605,0.872384 -0.739625,1.3235492 0.02805,0.051455 0.06207,0.1197618 0.109321,0.1374194 0.329027,0.1229437 0.66228,0.2345789 0.994178,0.3498388 0.01384,0.00679 0.02845,0.00979 0.06767,0.020644 0.502198,0.1559849 0.980574,0.3003185 1.458949,0.4446527 0,0 -3.6e-4,-0.0053 0.0064,0.011485 0.241472,0.1983717 0.47615,0.3799531 0.710827,0.561534 0,0 0.0046,0.014644 0.01354,0.037663 0.178931,0.4236747 0.3489476,0.8243326 0.5189646,1.224989 8.74e-4,0.03684 0.0017,0.073679 0.0027,0.1527329 -0.0275,0.5962535 -0.05505,1.1502925 -0.0826,1.7043319 -0.0057,0.021293 -0.01131,0.042585 -0.03011,0.093547 -0.213505,0.692622 -0.4864986,1.321443 -0.8873396,1.890193 0,0 0.0157,0.01254 -0.0075,0.0136 -0.564073,0.628425 -1.233689,1.032158 -2.055294,1.173347 -0.0227,0.0039 -0.04216,0.02665 -0.06313,0.04061 -0.06233,0.0057 -0.124662,0.01143 -0.214539,0.01461 -0.05583,0.005 -0.08412,0.01256 -0.112408,0.0201 z"
         id="path192"
         style="stroke-width:0.0514379" />
      <path
         fill="#0e3a50"
         opacity="1"
         stroke="none"
         d="m 5.4766134,2.3683255 c -0.236617,0.3075571 -0.548678,0.5832832 -0.737583,0.9267456 -0.734327,1.3351362 -0.945273,2.7199457 -0.245543,4.1477548 0.209673,0.4278412 0.58899,0.6632359 1.01124,0.8241582 0.543388,0.2070905 1.09853,0.3831917 1.64699,0.5772179 0.144766,0.051213 0.284733,0.1167059 0.424873,0.1801298 0.270532,0.122435 0.394026,0.3471769 0.414793,0.6312853 0.05732,0.7841939 -0.660185,1.3988289 -1.427758,1.2269409 -0.324451,-0.07265 -0.515148,-0.292605 -0.626212,-0.588342 -0.05084,-0.135374 -0.083307,-0.279099 -0.11041,-0.4216411 -0.061852,-0.3252988 -0.058853,-0.3289895 -0.395213,-0.2811178 -0.482876,0.068723 -0.965046,0.1424047 -1.468968,0.2103917 0.0703,-0.041936 0.15886,-0.099522 0.254351,-0.1153932 0.464022,-0.077121 0.930111,-0.1417123 1.395011,-0.2136904 0.169085,-0.02618 0.257191,0.037989 0.283772,0.2095471 0.02616,0.1688315 0.06188,0.3370487 0.106476,0.5019997 0.161834,0.598557 0.910707,0.839733 1.410427,0.466154 0.406328,-0.303761 0.516295,-0.7170401 0.428918,-1.1831332 C 7.8181564,9.3413378 7.6781714,9.1921839 7.5546464,9.1381803 7.1567034,8.9642056 6.7390664,8.8359725 6.3336504,8.6782099 5.9033674,8.5107709 5.4719364,8.343696 5.0529834,8.1504933 4.6769904,7.9771024 4.4693584,7.6367446 4.2930204,7.2787791 3.9656534,6.6142233 3.9517994,5.9016518 4.0139084,5.1903786 4.0809784,4.4223189 4.3086714,3.69269 4.7680664,3.0640904 4.9587014,2.8032401 5.2255534,2.598091 5.4766134,2.3683255 Z"
         id="path194"
         style="stroke-width:0.0514379" />
      <path
         fill="#0f394d"
         opacity="1"
         stroke="none"
         d="m 7.8351674,2.5972447 c -0.05566,0.018978 -0.131667,0.021018 -0.163776,0.059596 -0.272404,0.3272839 -0.638683,0.3033941 -0.873961,-0.098531 -0.160408,0.1801599 -0.297861,0.3756824 -0.591868,0.3347906 -0.364116,-0.050643 -0.249412,-0.3516917 -0.35124,-0.5669116 -0.10094,0.012059 -0.20963,0.025043 -0.339563,0.040931 -0.0059,-0.05157 0.0094,-0.1060426 0.03173,-0.1856027 -0.344839,0 -0.671823,0 -1.017821,0.00958 -0.02994,0.011077 -0.04087,0.012573 -0.06796,0.018043 -0.0296,4.86e-5 -0.03989,-0.00794 -0.04836,-0.029759 0.02313,-0.057706 0.04761,-0.1056446 0.09586,-0.1573573 0.05175,0.00783 0.07973,0.019444 0.131378,0.033862 0.247432,0.00147 0.47119,1.389e-4 0.712783,0.00191 0.07713,0.011218 0.136427,0.019323 0.217537,0.032658 0.184001,-0.016957 0.418385,0.12311 0.467264,-0.182837 0.05221,0.01768 0.08983,0.031706 0.129322,0.064878 -8.52e-4,0.057426 -0.0036,0.095706 -0.01569,0.1448531 -0.01536,0.029016 -0.02132,0.047165 -0.02536,0.084115 -0.07517,0.198739 -0.08595,0.3858682 0.107424,0.4787477 0.193451,0.092917 0.274821,-0.088624 0.360233,-0.2223022 0.02242,-0.035086 0.04894,-0.067551 0.09427,-0.1011031 0.06197,-3.19e-4 0.103237,-7.572e-4 0.157475,-0.00452 0.03571,-0.017146 0.05845,-0.030971 0.09312,-0.048657 0.02732,-0.012261 0.03809,-0.024668 0.04414,-0.04154 -1.18e-4,-4.578e-4 8.2e-4,7.335e-4 0.01271,0.00275 0.01188,0.00201 0.03569,0.0045 0.03569,0.0045 0,0 0.02388,-0.00155 0.0261,0.020202 0.0094,0.1092411 0.0166,0.1967332 0.02993,0.301373 0.07346,0.035225 0.140772,0.053301 0.22278,0.069791 0.04212,-0.01178 0.06956,-0.021974 0.106496,-0.038278 0.02107,-0.01645 0.02909,-0.029039 0.04357,-0.05795 0.0301,-0.055306 0.05022,-0.096542 0.07699,-0.1449924 0.01448,-0.018147 0.01927,-0.030276 0.02828,-0.053867 0.01666,-0.024118 0.02555,-0.038302 0.05249,-0.05176 0.05576,0.00186 0.09294,0.00267 0.151581,0.00634 0.06107,-0.01227 0.100676,-0.027413 0.156327,-0.031836 0.02886,0.046074 0.04168,0.081429 0.03502,0.1245948 -0.05462,0.066631 -0.08977,0.1254514 -0.124916,0.1842717 z"
         id="path196"
         style="stroke-width:0.0514379" />
      <path
         fill="#038acf"
         opacity="1"
         stroke="none"
         d="m 10.571245,1.3949663 c 0.0013,0.1863858 0.0027,0.3727717 0.0054,0.5802418 0.0013,0.021084 -0.0061,0.023061 -0.01508,0.031373 -0.01955,0.021355 -0.02608,0.036178 -0.03801,0.057608 -0.02299,0.00924 -0.03528,0.015946 -0.06609,0.019979 -0.127706,-0.00136 -0.235648,0.00225 -0.343591,0.00587 -0.0735,-0.00352 -0.1469986,-0.00704 -0.2559406,-0.00933 -0.08456,-0.0041 -0.133668,-0.00944 -0.18559,-0.025153 -0.0086,-0.023683 -0.01333,-0.037331 -0.01499,-0.07156 0.02069,-0.2362791 0.03926,-0.45232 0.05783,-0.6683609 0.260131,2.007e-4 0.5202616,4.013e-4 0.8041136,0.019252 0.03008,0.034553 0.0395,0.048365 0.05199,0.060084 z"
         id="path198"
         style="stroke-width:0.0514379" />
      <path
         fill="#0e3a50"
         opacity="1"
         stroke="none"
         d="m 3.7746994,9.8058522 c -0.01395,0.021231 -0.04497,0.036659 -0.0778,0.043934 -0.472627,0.1047337 -0.5014,0.1102468 -0.406959,0.5796668 0.100218,0.498142 0.221041,1.000234 0.407864,1.470829 0.23982,0.604089 0.752746,0.929309 1.366271,1.101383 0.07346,0.0206 0.145082,0.04777 0.231453,0.08475 -0.629071,0.009 -1.121027,-0.308041 -1.486333,-0.795435 -0.433574,-0.578479 -0.5779,-1.272599 -0.625436,-1.981211 -0.03404,-0.507461 0.05999,-0.5790152 0.590938,-0.5039159 z"
         id="path200"
         style="stroke-width:0.0514379" />
      <path
         fill="#122b36"
         opacity="1"
         stroke="none"
         d="m 9.6751054,2.0659313 c 0.04911,0.00534 0.09823,0.010675 0.165366,0.020866 0.0069,0.036983 -0.0043,0.069112 -0.03816,0.1166465 -0.04774,0.034262 -0.07272,0.053117 -0.09771,0.071973 -0.140175,0.00901 -0.280351,0.018026 -0.458895,0.018677 -0.07695,0.055635 -0.138132,0.1160305 -0.149033,0.1844383 -0.0184,0.1154841 -0.0049,0.2360432 -0.0049,0.3544682 -0.08632,-0.01431 -0.17263,-0.028621 -0.264705,-0.079971 -0.03518,-0.086022 -0.0646,-0.1350034 -0.09402,-0.1839853 -0.04197,0.00496 -0.114551,-0.00158 -0.121368,0.016578 -0.133677,0.356037 -0.410127,0.2807473 -0.696625,0.2004736 -0.03485,-0.059777 -0.05186,-0.088142 -0.06886,-0.1165078 -0.0082,-0.014871 -0.01269,-0.030794 -0.01221,-0.060058 0.03633,-0.071106 0.07147,-0.1299267 0.132555,-0.1790862 0.08486,0.098284 0.14378,0.1869067 0.2027,0.2755299 0.09021,-0.062684 0.185619,-0.1193227 0.268439,-0.1905922 0.04167,-0.035856 0.06047,-0.098284 0.109052,-0.1495269 0.05826,-0.00386 0.09708,-0.00688 0.15386,-0.00661 0.05433,0.00227 0.0907,0.00125 0.138467,0.011588 0.03977,0.056688 0.06814,0.1020199 0.100913,0.1601017 0.03391,-0.013017 0.06343,-0.038785 0.0938,-0.084914 -2.57e-4,-0.074593 -0.0014,-0.1288245 0.0046,-0.2017073 0.03157,-0.050346 0.05604,-0.08204 0.100659,-0.1155309 0.148492,-0.012205 0.276838,-0.022613 0.427924,-0.033012 0.0512,-0.00994 0.07967,-0.01989 0.108138,-0.029839 z"
         id="path202"
         style="stroke-width:0.0514379" />
      <path
         fill="#0f394d"
         opacity="1"
         stroke="none"
         d="m 10.290037,4.7481618 c 0.04729,-0.032434 0.109711,-0.064666 0.175708,-0.075919 0.152472,-0.025998 0.195623,-0.1134029 0.172733,-0.256817 -0.119834,-0.7507791 -0.286486,-1.4826302 -0.8185036,-2.0896223 0.2705076,0.057247 0.3912576,0.3015022 0.4692516,0.5183478 0.1781,0.495169 0.322747,1.006147 0.431594,1.5211415 0.0744,0.3520359 -0.03796,0.4299885 -0.430783,0.382869 z"
         id="path204"
         style="stroke-width:0.0514379" />
      <path
         fill="#0f394d"
         opacity="1"
         stroke="none"
         d="m 7.9220794,4.2191151 c 0.101334,0.1598522 0.250166,0.3291755 0.290668,0.5213321 0.05216,0.247493 0.16907,0.2771366 0.374744,0.2398426 0.420382,-0.076225 0.841955,-0.1459918 1.263522,-0.2154846 0.09229,-0.015214 0.1866066,-0.018152 0.3023276,-0.021857 -0.1697566,0.054356 -0.3599146,0.1139386 -0.5543516,0.1511786 -0.400109,0.076632 -0.801476,0.1488973 -1.204939,0.2037167 -0.06998,0.00951 -0.195969,-0.057545 -0.222064,-0.120109 C 8.0720964,4.7382307 8.0023944,4.486132 7.9220794,4.2191151 Z"
         id="path206"
         style="stroke-width:0.0514379" />
      <path
         fill="#0f394d"
         opacity="1"
         stroke="none"
         d="m 7.5411114,5.7576247 c -0.320588,-0.09911 -0.653841,-0.2107451 -0.982868,-0.3336888 -0.04725,-0.017658 -0.08127,-0.085964 -0.109321,-0.1374194 -0.24598,-0.4511652 0.106069,-1.3382249 0.723896,-1.3198705 -0.05883,0.050925 -0.133346,0.111053 -0.218462,0.1399209 -0.369865,0.1254422 -0.647796,0.7158335 -0.409335,1.1221416 0.104114,0.1773975 0.375951,0.263146 0.581577,0.3716485 0.124545,0.065718 0.268158,0.0953 0.414513,0.1572677 z"
         id="path208"
         style="stroke-width:0.0514379" />
      <path
         fill="#0f394d"
         opacity="1"
         stroke="none"
         d="m 7.2289584,13.148505 c -0.0025,-0.01936 0.01693,-0.04212 0.03963,-0.04602 0.821606,-0.141189 1.491221,-0.544922 2.047397,-1.179401 -0.0258,0.07408 -0.04998,0.171877 -0.110712,0.233852 -0.538599,0.549615 -1.15408,0.954429 -1.976316,0.991564 z"
         id="path210"
         style="stroke-width:0.0514379" />
      <path
         fill="#0f394d"
         opacity="1"
         stroke="none"
         d="m 9.3497384,11.915692 c 0.382506,-0.568896 0.6554986,-1.197716 0.8690976,-1.87375 -0.02091,0.173561 -0.022,0.374636 -0.09589,0.543944 -0.1727806,0.395939 -0.3767486,0.778597 -0.5775366,1.16168 -0.0358,0.06831 -0.117067,0.112788 -0.195675,0.168126 z"
         id="path212"
         style="stroke-width:0.0514379" />
      <path
         fill="#0f394d"
         opacity="1"
         stroke="none"
         d="m 10.264802,9.9236599 c 0.0116,-0.5458927 0.03915,-1.0999317 0.07125,-1.6782884 0.03207,0.025286 0.08464,0.075609 0.08324,0.1243768 -0.01367,0.4741312 -0.03442,0.948105 -0.05984,1.4217651 -0.0023,0.042618 -0.05136,0.082727 -0.09465,0.1321465 z"
         id="path214"
         style="stroke-width:0.0514379" />
      <path
         fill="#0f394d"
         opacity="1"
         stroke="none"
         d="M 9.0721944,6.2220496 C 8.6006634,6.0947368 8.1222874,5.9504031 7.6310104,5.7915794 c 0.498996,0.028442 0.995735,0.1226423 1.441184,0.4304702 z"
         id="path216"
         style="stroke-width:0.0514379" />
      <path
         fill="#0f394d"
         opacity="1"
         stroke="none"
         d="M 10.338343,8.0590774 C 10.158771,7.6740854 9.9887544,7.2734276 9.8155254,6.854896 10.050355,6.90969 10.111668,7.1113314 10.16435,7.3193179 c 0.06114,0.2413763 0.122363,0.4827311 0.173993,0.7397595 z"
         id="path218"
         style="stroke-width:0.0514379" />
      <path
         fill="#0f394d"
         opacity="1"
         stroke="none"
         d="M 9.7967114,6.7930003 C 9.5616084,6.6305091 9.3269304,6.4489277 9.0838704,6.2526886 c 0.329826,0.032455 0.554781,0.2320831 0.712841,0.5403117 z"
         id="path220"
         style="stroke-width:0.0514379" />
      <path
         fill="#122b36"
         opacity="1"
         stroke="none"
         d="m 10.115885,2.1032771 c 0.105886,-0.016857 0.213828,-0.020469 0.341253,-6.795e-4 0.01841,0.047868 0.01734,0.072335 0.01627,0.096802 -0.08649,0.00195 -0.17297,0.00389 -0.28101,0.00646 -0.03919,-0.029362 -0.05682,-0.05935 -0.07652,-0.1025833 z"
         id="path222"
         style="stroke-width:0.0514379" />
      <path
         fill="#0f394d"
         opacity="1"
         stroke="none"
         d="m 7.5473144,3.9957635 c 0.115816,0.047679 0.240156,0.1093887 0.370008,0.1874595 -0.11682,-0.046902 -0.239152,-0.110165 -0.370008,-0.1874595 z"
         id="path224"
         style="stroke-width:0.0514379" />
      <path
         fill="#0e3a50"
         opacity="1"
         stroke="none"
         d="m 5.6386524,13.15972 c 0.07414,-0.01064 0.151377,-0.0066 0.24505,0.0082 -0.06969,0.0093 -0.155818,0.0079 -0.24505,-0.0082 z"
         id="path226"
         style="stroke-width:0.0514379" />
      <path
         fill="#0f394d"
         opacity="1"
         stroke="none"
         d="m 7.3004294,3.9759747 c 0.03274,-0.013652 0.0768,-0.018556 0.132162,-0.015197 -0.03275,0.01349 -0.0768,0.018718 -0.132162,0.015197 z"
         id="path228"
         style="stroke-width:0.0514379" />
      <path
         fill="#0f394d"
         opacity="1"
         stroke="none"
         d="m 9.7218024,2.2836833 c 0.0078,-0.027122 0.03277,-0.045978 0.06956,-0.067014 0.01537,0.018082 0.01893,0.038344 0.02242,0.07408 -0.02497,0.010716 -0.04987,0.00596 -0.09197,-0.00707 z"
         id="path230"
         style="stroke-width:0.0514379" />
      <path
         fill="#0e3a50"
         opacity="1"
         stroke="none"
         d="m 6.8880144,13.185116 c 0.01879,-0.01484 0.04708,-0.02239 0.08469,-0.02262 -0.01885,0.01485 -0.04702,0.02238 -0.08469,0.02262 z"
         id="path232"
         style="stroke-width:0.0514379" />
      <path
         fill="#0583c3"
         opacity="1"
         stroke="none"
         d="m 6.1602034,2.1064855 c 0.0027,-0.03828 0.0054,-0.07656 0.01735,-0.1485811 0.09275,-0.3641974 0.17629,-0.6946534 0.259834,-1.02510949 0.174323,-0.2644793 0.281244,-0.29362 0.51703,-0.1024204 0.01182,0.090765 0.01618,0.1450669 0.0169,0.21537059 -0.0044,0.037843 -0.0052,0.059684 -0.0213,0.090288 -0.104624,0.4127286 -0.193985,0.816695 -0.283345,1.2206617 -0.02464,0.033668 -0.05116,0.066133 -0.07357,0.1012192 -0.08541,0.1336786 -0.166782,0.3152191 -0.360233,0.2223023 -0.193372,-0.09288 -0.182598,-0.2800088 -0.09731,-0.4893015 0.01368,-0.047713 0.01916,-0.066071 0.02464,-0.084429 z"
         id="path348"
         style="stroke-width:0.0514379" />
      <path
         fill="#0973a9"
         opacity="1"
         stroke="none"
         d="m 4.6159104,2.0530775 c -0.02798,-0.011609 -0.05596,-0.023218 -0.0971,-0.042983 -0.01182,-0.1774609 -0.0062,-0.3468725 -0.01041,-0.5160369 -0.0038,-0.1522518 0.06402,-0.2132908 0.214246,-0.2095333 0.203022,0.00508 0.406316,-7.382e-4 0.651545,0.00178 0.06703,0.00222 0.09201,7.818e-4 0.13128,0.00204 0.02376,0.00477 0.03322,0.00685 0.04068,0.031696 -6.99e-4,0.2702414 6.18e-4,0.5177159 0.0019,0.7651907 -0.0593,-0.00811 -0.118592,-0.016211 -0.18718,-0.046874 0.0018,-0.1146694 0.02137,-0.2066683 0.02262,-0.2989142 0.0047,-0.3496151 0.0025,-0.3496449 -0.351884,-0.3502803 -0.420952,-7.546e-4 -0.421247,-7.541e-4 -0.420772,0.4089043 9.8e-5,0.085006 0.0033,0.1700083 0.005,0.2550123 z"
         id="path350"
         style="stroke-width:0.0514379" />
      <path
         fill="#0b4b6a"
         opacity="1"
         stroke="none"
         d="m 5.5481694,1.2972719 c -0.0095,-0.00208 -0.01894,-0.00415 -0.04227,-0.020679 -0.01386,-0.014447 -0.01147,-0.037825 -0.01147,-0.037825 0.187277,-0.00665 0.374554,-0.013301 0.585006,0.00565 0.02318,0.1535528 0.02318,0.281502 0.02318,0.4094509 0.08076,-0.1042434 0.137013,-0.2077965 0.139432,-0.3125921 0.0021,-0.091524 -0.05639,-0.1844471 -0.08811,-0.276752 0.08214,-0.040666 0.164273,-0.081331 0.264934,-0.12686459 -0.06502,0.32558849 -0.148563,0.65604449 -0.243173,1.00109569 -0.04869,5.695e-4 -0.08632,-0.013456 -0.144145,-0.054537 -0.02234,-0.1204779 -0.03605,-0.2153718 -0.02439,-0.3070381 0.03092,-0.2430222 -0.07986,-0.325634 -0.306917,-0.2940502 -0.05037,0.00701 -0.101365,0.00954 -0.152072,0.014139 z"
         id="path352"
         style="stroke-width:0.0514379" />
      <path
         fill="#0583c3"
         opacity="1"
         stroke="none"
         d="m 6.1521844,1.0673037 c 0.03347,0.089528 0.09197,0.1824514 0.08986,0.2739754 -0.0024,0.1047956 -0.05867,0.2083487 -0.139432,0.3125921 0,-0.1279489 0,-0.2558981 -0.0033,-0.4068038 3e-6,-0.042968 0.0033,-0.062979 0.01719,-0.1061039 0.02173,-0.035651 0.02774,-0.050295 0.02861,-0.067044 0,0 0.0053,-0.00384 0.0071,-0.00662 z"
         id="path354"
         style="stroke-width:0.0514379" />
      <path
         fill="#0a5e87"
         opacity="1"
         stroke="none"
         d="m 6.9652864,1.1272705 c 7.96e-4,-0.021841 0.0016,-0.043682 0.01861,-0.085939 0.02439,-0.02388 0.03255,-0.027345 0.0407,-0.030809 0.02504,5.66e-5 0.05008,1.08e-4 0.09344,-0.00435 0.01833,-0.00452 0.0237,0.019152 0.01146,0.040493 -0.02136,0.0262 -0.03048,0.031058 -0.05515,0.041218 -0.04672,0.016664 -0.07789,0.028027 -0.109066,0.03939 z"
         id="path356"
         style="stroke-width:0.0514379" />
      <path
         fill="#384449"
         opacity="1"
         stroke="none"
         d="m 7.0252134,0.99392271 c -0.0088,0.020064 -0.01693,0.023528 -0.03767,0.031407 -0.01695,-0.049888 -0.02131,-0.10418994 -0.0228,-0.17853834 0.02227,0.030146 0.04168,0.08034 0.06047,0.14713135 z"
         id="path358"
         style="stroke-width:0.0514379" />
      <path
         fill="#0e3a50"
         opacity="1"
         stroke="none"
         d="m 5.4788354,1.2401179 c 0.0156,-0.00135 0.0132,0.022028 0.01278,0.033778 -0.0254,0.013188 -0.05038,0.014626 -0.0938,0.011575 0.0095,-0.01766 0.03747,-0.030832 0.08102,-0.045353 z"
         id="path360"
         style="stroke-width:0.0514379" />
      <path
         fill="#0b4b6a"
         opacity="1"
         stroke="none"
         d="m 6.1357614,1.081572 c 0.0085,0.0091 0.0025,0.02374 -0.01781,0.044207 -0.0084,-0.00894 -0.0026,-0.02377 0.01781,-0.044207 z"
         id="path362"
         style="stroke-width:0.0514379" />
      <path
         fill="#0388cc"
         opacity="1"
         stroke="none"
         d="m 8.5272924,2.3666857 c -0.02914,0.050412 -0.04794,0.1128404 -0.08961,0.1486966 -0.08282,0.07127 -0.178231,0.1279081 -0.268439,0.1905922 -0.05892,-0.088623 -0.117842,-0.1772461 -0.183223,-0.2833408 -0.01928,-0.052826 -0.0321,-0.088181 -0.06144,-0.1332179 -0.01653,-0.00968 -0.01512,-0.00997 0.0049,-0.010503 0.07147,-0.072121 0.148343,-0.1367846 0.170024,-0.2164658 0.112863,-0.4147928 0.211675,-0.8334092 0.315378,-1.25069459 0.14075,-0.137522 0.276106,-0.1769308 0.393516,0.058469 -0.04922,0.34381299 -0.0936,0.65106109 -0.148896,0.96371359 -0.01091,0.0054 -0.03163,0.018212 -0.03995,0.029622 -0.01471,0.038603 -0.0211,0.065795 -0.03202,0.1133233 -0.02312,0.1434925 -0.0417,0.2666492 -0.06028,0.3898057 z"
         id="path364"
         style="stroke-width:0.0514379" />
      <path
         fill="#038acf"
         opacity="1"
         stroke="none"
         d="m 9.5442294,2.0957615 c -0.128348,0.010408 -0.256694,0.020816 -0.413537,0.017926 -0.05121,-0.079667 -0.07392,-0.1460361 -0.09322,-0.2264525 0.0038,-0.023675 0.0043,-0.033303 0.0071,-0.065377 0.0169,-0.1977395 0.03134,-0.3730334 0.04578,-0.5483271 0.141248,0.00105 0.282495,0.00209 0.439877,0.031939 0.019,0.2525297 0.02185,0.4762579 0.02176,0.7149151 -0.0046,0.035078 -0.0062,0.055227 -0.0078,0.075376 z"
         id="path366"
         style="stroke-width:0.0514379" />
      <path
         fill="#0a5e87"
         opacity="1"
         stroke="none"
         d="m 9.0820024,1.2588599 c -0.006,0.1899652 -0.02048,0.3652591 -0.04796,0.5711401 -0.02505,0.043531 -0.03706,0.056476 -0.06138,0.06969 -0.0123,2.727e-4 -0.0369,0.00134 -0.03868,-0.022391 -0.0018,-0.2166339 -0.0018,-0.4095402 -0.0018,-0.6024467 -0.01167,-0.00121 -0.02334,-0.00242 -0.03501,-0.00363 -0.07291,0.2956296 -0.145813,0.5912591 -0.219436,0.8701365 -0.02903,-0.072774 -0.05733,-0.1287955 -0.08564,-0.1848168 0.0064,-0.027192 0.01277,-0.054385 0.03435,-0.089949 0.03239,-0.0098 0.04199,-0.019698 0.04399,-0.038066 0.04438,-0.3072481 0.08876,-0.6144961 0.141563,-0.93944679 0.09281,0.1065664 0.177199,0.23083579 0.269988,0.36977649 z"
         id="path368"
         style="stroke-width:0.0514379" />
      <path
         fill="#086190"
         opacity="1"
         stroke="none"
         d="m 8.3995804,0.81762241 c -0.08836,0.41141499 -0.187176,0.83003139 -0.30004,1.24482419 -0.02168,0.079681 -0.09856,0.1443448 -0.171245,0.1941436 0.0629,-0.4040092 0.147085,-0.7862254 0.231266,-1.1684417 0.0013,-0.0087 0.0026,-0.017402 0.01892,-0.049232 0.02313,-0.053177 0.03127,-0.083225 0.0394,-0.11327379 0,0 3.09e-4,0.00521 0.0028,0.00587 0.05617,-0.035567 0.109869,-0.071794 0.178909,-0.1138899 z"
         id="path370"
         style="stroke-width:0.0514379" />
      <path
         fill="#2b2c2b"
         opacity="1"
         stroke="none"
         d="m 10.493274,2.2011049 c -0.01879,-0.026172 -0.01772,-0.050639 -0.01637,-0.093536 0.01132,-0.027435 0.02362,-0.034142 0.05893,-0.048927 0.02606,-0.027041 0.03037,-0.043707 0.03467,-0.060372 0,0 0.0074,-0.00198 0.01071,-1.132e-4 0.01449,-0.2211139 0.02376,-0.4442203 0.03876,-0.666941 0.0025,-0.036499 0.03011,-0.071302 0.06023,-0.1051542 0.0055,0.3224641 -0.0031,0.6431939 -0.02991,0.9736571 -0.05782,0.00752 -0.09749,0.00531 -0.157017,0.00139 z"
         id="path372"
         style="stroke-width:0.0514379" />
      <path
         fill="#0973a9"
         opacity="1"
         stroke="none"
         d="m 9.5549954,2.0054571 c -0.0029,-0.2237284 -0.0057,-0.4474566 -0.0083,-0.6905146 0.04295,-0.017808 0.08559,-0.016286 0.148318,-0.00704 0.0015,0.2237667 -0.01704,0.4398076 -0.05444,0.6765717 -0.04109,0.020809 -0.06335,0.020895 -0.08562,0.020981 z"
         id="path374"
         style="stroke-width:0.0514379" />
      <path
         fill="#0a5e87"
         opacity="1"
         stroke="none"
         d="m 10.570691,1.381742 c -0.01194,0.00151 -0.02136,-0.012307 -0.03061,-0.040514 0.0081,8.95e-4 0.01907,0.014092 0.03061,0.040514 z"
         id="path376"
         style="stroke-width:0.0514379" />
      <path
         fill="#0388cd"
         opacity="1"
         stroke="none"
         d="m 7.4063094,2.6285496 c -0.02743,0.010194 -0.05486,0.020387 -0.111187,0.023854 -0.09084,-0.030693 -0.152782,-0.054659 -0.214725,-0.078626 -0.0072,-0.087492 -0.01438,-0.174984 -0.008,-0.2981089 0.09295,-0.4289613 0.172287,-0.8222892 0.251624,-1.2156175 0.09653,-0.17539459 0.149586,-0.40543029 0.459528,-0.32927829 0.04876,0.045984 0.07169,0.076205 0.09462,0.1064253 0.0054,0.033569 0.01076,0.067137 0.0074,0.1339517 -0.101495,0.46938439 -0.194276,0.90552329 -0.287056,1.34166209 -0.0084,0.014515 -0.01726,0.0287 -0.043,0.058372 -0.02679,0.027299 -0.02998,0.040535 -0.02586,0.055528 -0.02012,0.041235 -0.04024,0.08247 -0.08046,0.1432374 -0.03247,0.029777 -0.04009,0.0428 -0.04296,0.0586 z"
         id="path378"
         style="stroke-width:0.0514379" />
      <path
         fill="#086190"
         opacity="1"
         stroke="none"
         d="m 7.6171524,2.31387 c 0.07421,-0.4371967 0.166992,-0.8733356 0.269686,-1.32575629 0.05916,0.00883 0.108401,0.03395 0.155766,0.083483 -0.0997,0.4315266 -0.197511,0.8386355 -0.295326,1.2457443 -0.03719,-8.044e-4 -0.07437,-0.00161 -0.130126,-0.00347 z"
         id="path380"
         style="stroke-width:0.0514379" />
      <path
         fill="#0583c3"
         opacity="1"
         stroke="none"
         d="m 7.0899004,1.0825788 c 0.0091,-0.00486 0.01824,-0.00972 0.03985,-0.023785 0.02228,-0.00782 0.03207,-0.00643 0.05384,0.023732 -0.0589,0.412616 -0.129778,0.796461 -0.200658,1.1803063 -1e-6,0 -9.38e-4,-0.00119 -0.01185,0.00446 -0.02432,0.015162 -0.0357,0.026681 -0.04504,0.040207 -0.02274,0.013825 -0.04548,0.02765 -0.08318,0.022893 0.07237,-0.4283255 0.159707,-0.8380689 0.24704,-1.2478124 z"
         id="path382"
         style="stroke-width:0.0514379" />
      <path
         fill="#0583c3"
         opacity="1"
         stroke="none"
         d="m 7.7687334,2.3202143 c 0.07636,-0.4099819 0.174175,-0.8170908 0.286223,-1.2377174 0.03448,-0.00988 0.05473,-0.00625 0.08979,0.00152 -0.06936,0.3863493 -0.153546,0.7685655 -0.236507,1.1731039 0.0012,0.022322 -2.06e-4,0.022614 3.09e-4,0.021577 -0.03913,0.014105 -0.07874,0.029249 -0.139801,0.041518 z"
         id="path384"
         style="stroke-width:0.0514379" />
      <path
         fill="#0a5e87"
         opacity="1"
         stroke="none"
         d="m 6.9948174,2.2648465 c 0.05899,-0.3858598 0.129875,-0.7697048 0.202475,-1.1766479 0.03301,-0.023803 0.06431,-0.024509 0.111189,-0.026681 -0.06375,0.391862 -0.143088,0.7851899 -0.238259,1.1924019 -0.01583,0.013884 -0.03972,0.015432 -0.03972,0.015432 0,0 -0.0238,-0.00249 -0.03569,-0.0045 z"
         id="path386"
         style="stroke-width:0.0514379" />
      <path
         fill="#086190"
         opacity="1"
         stroke="none"
         d="m 7.8811794,0.82065391 c -0.0259,-0.013676 -0.04883,-0.043897 -0.07677,-0.087823 0.02323,0.014623 0.05149,0.04295 0.07677,0.087823 z"
         id="path388"
         style="stroke-width:0.0514379" />
      <path
         fill="#303c40"
         opacity="1"
         stroke="none"
         d="m 8.2073124,0.93702241 c 0.0024,0.018669 -0.0057,0.048718 -0.02691,0.088836 -0.0033,-0.019106 0.0065,-0.048281 0.02691,-0.088836 z"
         id="path390"
         style="stroke-width:0.0514379" />
      <path
         fill="#0f394d"
         opacity="1"
         stroke="none"
         d="m 9.1097334,2.8253417 c -0.01801,-0.1107659 -0.03146,-0.231325 -0.01306,-0.3468091 0.0109,-0.068408 0.07209,-0.1288031 0.125541,-0.1880248 -0.02159,0.1789094 -0.05806,0.3530422 -0.112484,0.5348339 z"
         id="path392"
         style="stroke-width:0.0514379" />
      <path
         fill="#0f394d"
         opacity="1"
         stroke="none"
         d="m 8.7315324,2.5867508 c 0.03094,0.031276 0.06036,0.080257 0.08708,0.1485362 -0.03134,-0.030746 -0.05997,-0.080788 -0.08708,-0.1485362 z"
         id="path394"
         style="stroke-width:0.0514379" />
      <path
         fill="#0f394d"
         opacity="1"
         stroke="none"
         d="m 7.8412494,2.6810251 c 0.02196,0.016929 0.03896,0.045294 0.05742,0.090518 -0.01982,-0.015121 -0.0411,-0.047101 -0.05742,-0.090518 z"
         id="path396"
         style="stroke-width:0.0514379" />
      <path
         fill="#028cd3"
         opacity="1"
         stroke="none"
         d="m 4.6395834,2.0558868 c -0.02543,-0.087813 -0.02861,-0.1728158 -0.02871,-0.2578216 -4.73e-4,-0.4096586 -1.8e-4,-0.4096589 0.420772,-0.4089043 0.35439,6.353e-4 0.356605,6.651e-4 0.351884,0.3502803 -0.0012,0.092246 -0.02078,0.1842448 -0.04045,0.2958021 -0.232301,0.020781 -0.456059,0.022117 -0.703491,0.020644 z"
         id="path398"
         style="stroke-width:0.0514379" />
      <path
         fill="#028cd3"
         opacity="1"
         stroke="none"
         d="m 5.5461534,1.3200386 c 0.05272,-0.027362 0.103717,-0.029899 0.154088,-0.036906 0.227059,-0.031584 0.337835,0.051028 0.306917,0.2940502 -0.01166,0.091666 0.002,0.1865602 0.0098,0.3033833 -0.02868,0.3330021 -0.26306,0.1929354 -0.447061,0.2098921 -0.02313,-0.2527038 -0.02445,-0.5001783 -0.02375,-0.7704198 z"
         id="path400"
         style="stroke-width:0.0514379" />
      <path
         fill="#086190"
         opacity="1"
         stroke="none"
         d="m 7.0743534,1.0878801 c -0.07179,0.4044423 -0.159119,0.8141856 -0.244462,1.2458328 -0.03928,0.02234 -0.08055,0.022777 -0.142517,0.023098 0.06866,-0.4040828 0.158025,-0.8080492 0.262649,-1.2207778 0.04644,-0.020125 0.07761,-0.031488 0.12433,-0.048153 z"
         id="path402"
         style="stroke-width:0.0514379" />
      <path
         fill="#0a5e87"
         opacity="1"
         stroke="none"
         d="m 7.0865434,2.5909256 c 0.0558,0.00682 0.11774,0.030785 0.193884,0.063065 -0.05311,-0.00976 -0.120425,-0.02784 -0.193884,-0.063065 z"
         id="path404"
         style="stroke-width:0.0514379" />
      <path
         fill="#0b4b6a"
         opacity="1"
         stroke="none"
         d="m 6.1508034,2.1173527 c 0.0039,0.00749 -0.0016,0.025849 -0.01716,0.05476 -0.0042,-0.0076 0.0018,-0.025744 0.01716,-0.05476 z"
         id="path406"
         style="stroke-width:0.0514379" />
      <path
         fill="#0a5e87"
         opacity="1"
         stroke="none"
         d="m 7.4158194,2.6224385 c -0.0066,-0.00969 9.77e-4,-0.022712 0.02347,-0.038417 0.0056,0.00938 -0.0024,0.021968 -0.02347,0.038417 z"
         id="path408"
         style="stroke-width:0.0514379" />
      <path
         fill="#0a5e87"
         opacity="1"
         stroke="none"
         d="m 6.9379734,2.3036385 c -0.0026,-0.00967 0.0088,-0.021185 0.03322,-0.035889 0.0049,0.011221 -0.0059,0.023628 -0.03322,0.035889 z"
         id="path410"
         style="stroke-width:0.0514379" />
      <path
         fill="#086190"
         opacity="1"
         stroke="none"
         d="m 7.5363854,2.4194965 c -0.01077,-0.00778 -0.0076,-0.021013 0.01196,-0.038048 0.0073,0.00777 0.0025,0.0199 -0.01196,0.038048 z"
         id="path412"
         style="stroke-width:0.0514379" />
      <path
         fill="#0a5e87"
         opacity="1"
         stroke="none"
         d="m 9.5520454,2.0203859 c 0.02521,-0.015015 0.04748,-0.015101 0.08644,-0.015672 0.02049,0.013506 0.02525,0.027154 0.03381,0.050837 -0.02566,0.020329 -0.05413,0.030279 -0.10533,0.040219 -0.02112,-0.020158 -0.01949,-0.040307 -0.01492,-0.075384 z"
         id="path414"
         style="stroke-width:0.0514379" />
      <path
         fill="#0a5e87"
         opacity="1"
         stroke="none"
         d="m 10.561524,2.0065807 c 0.0047,0.00835 3.6e-4,0.025019 -0.01625,0.047232 -0.0098,-0.011054 -0.0033,-0.025877 0.01625,-0.047232 z"
         id="path416"
         style="stroke-width:0.0514379" />
      <path
         fill="#0583c3"
         opacity="1"
         stroke="none"
         d="m 8.6784664,2.1581133 c 0.07291,-0.2956297 0.145813,-0.5912592 0.218719,-0.8868888 0.01167,0.00121 0.02334,0.00242 0.03501,0.00363 0,0.1929065 0,0.3858129 -0.0015,0.6215497 -0.02041,0.1316342 -0.03929,0.220438 -0.06937,0.3213875 -0.01867,0.055325 -0.02615,0.098505 -0.03363,0.1416853 -0.03637,0.00102 -0.07275,0.00204 -0.127525,-0.019998 -0.01949,-0.07583 -0.02059,-0.1285969 -0.02168,-0.181364 z"
         id="path418"
         style="stroke-width:0.0514379" />
      <path
         fill="#0f394d"
         opacity="1"
         stroke="none"
         d="m 8.8724954,2.2056442 c 0.01888,-0.088804 0.03776,-0.1776076 0.05995,-0.2855145 0.0033,-0.019103 0.02791,-0.020169 0.05249,-0.019786 0.02458,3.806e-4 0.04912,9.387e-4 0.04912,9.387e-4 0.02271,0.066369 0.04542,0.1327388 0.07649,0.2142025 -0.01612,0.046788 -0.0406,0.078483 -0.08833,0.1246715 -0.06541,-0.00184 -0.107567,-0.018177 -0.14972,-0.034512 z"
         id="path420"
         style="stroke-width:0.0514379" />
      <path
         fill="#086190"
         opacity="1"
         stroke="none"
         d="m 8.6777504,2.141361 c 0.0018,0.069519 0.0029,0.1222862 0.0044,0.1948201 -0.03837,0.022793 -0.07719,0.025819 -0.135457,0.029674 -8.59e-4,-0.1223262 0.01772,-0.2454829 0.04084,-0.3889754 0.03284,0.035686 0.06115,0.091707 0.09018,0.164481 z"
         id="path422"
         style="stroke-width:0.0514379" />
      <path
         fill="#0e4058"
         opacity="1"
         stroke="none"
         d="m 8.8612954,2.2177899 c 0.05335,0.00419 0.09551,0.020525 0.153829,0.041018 0.01728,0.058388 0.01839,0.1126199 0.0067,0.1938773 -0.03729,0.03985 -0.06175,0.052674 -0.08622,0.065499 -0.02838,-0.045331 -0.05675,-0.090663 -0.09652,-0.1473511 -0.0039,-0.054537 0.0036,-0.097717 0.02224,-0.1530425 z"
         id="path424"
         style="stroke-width:0.0514379" />
      <path
         fill="#0f394d"
         opacity="1"
         stroke="none"
         d="m 8.9399744,2.5309341 c 0.02007,-0.025575 0.04454,-0.038399 0.08098,-0.057888 -0.01755,0.019103 -0.04707,0.044871 -0.08098,0.057888 z"
         id="path426"
         style="stroke-width:0.0514379" />
      <path
         fill="#086190"
         opacity="1"
         stroke="none"
         d="m 8.6595394,1.8339346 c 0.0089,0.012963 -6.95e-4,0.022861 -0.02476,0.02125 -0.0069,-0.00304 0.01385,-0.015846 0.02476,-0.02125 z"
         id="path430"
         style="stroke-width:0.0514379" />
      <path
         fill="#0e4058"
         opacity="1"
         stroke="none"
         d="m 9.0374734,1.8872352 c -0.0034,0.014047 -0.02796,0.013491 -0.04023,0.012838 -2.57e-4,-0.013597 0.01175,-0.026541 0.03435,-0.047627 0.01015,0.00149 0.0097,0.011115 0.0059,0.03479 z"
         id="path432"
         style="stroke-width:0.0514379" />
    </g>
  </g>
</svg>
