<?xml version="1.0" encoding="UTF-8" standalone="no"?>
<svg
   version="1.1"
   id="Layer_1"
   x="0px"
   y="0px"
   width="200"
   viewBox="0 0 200 40.751999"
   enable-background="new 0 0 417 122"
   xml:space="preserve"
   sodipodi:docname="canna_bio.svg"
   inkscape:version="1.1.2 (0a00cf5339, 2022-02-04)"
   height="40.751999"
   xmlns:inkscape="http://www.inkscape.org/namespaces/inkscape"
   xmlns:sodipodi="http://sodipodi.sourceforge.net/DTD/sodipodi-0.dtd"
   xmlns="http://www.w3.org/2000/svg"
   xmlns:svg="http://www.w3.org/2000/svg"><defs
   id="defs35" /><sodipodi:namedview
   id="namedview33"
   pagecolor="#505050"
   bordercolor="#eeeeee"
   borderopacity="1"
   inkscape:pageshadow="0"
   inkscape:pageopacity="0"
   inkscape:pagecheckerboard="0"
   showgrid="false"
   inkscape:zoom="8.5463266"
   inkscape:cx="63.53607"
   inkscape:cy="52.478687"
   inkscape:window-width="1920"
   inkscape:window-height="1016"
   inkscape:window-x="0"
   inkscape:window-y="27"
   inkscape:window-maximized="1"
   inkscape:current-layer="Layer_1"
   width="200px"
   height="40.752px" />
<path
   fill="#fefffe"
   opacity="1"
   stroke="none"
   d="m 271,123 c -90.33333,0 -180.166649,0 -269.999976,0 -8e-6,-40.666649 -8e-6,-81.333302 -1.6e-5,-121.999965 138.999962,-1.2e-5 277.999932,-1.2e-5 416.999932,-2.3e-5 0,40.666618 0,81.333248 3e-5,121.999928 C 369.16666,123 320.33334,123 271,123 M 398.0032,68.5 c 0,-15.426929 0,-30.853859 0,-46.21299 -46.69873,0 -92.77694,0 -138.80264,0 0,26.350212 0,52.408684 0,78.42464 46.39398,0 92.46494,0 138.80264,0 0,-10.597156 0,-20.904407 0,-32.21165 M 48.267441,72.235443 C 60.341003,69.164078 72.073898,53.838959 71.626244,41.724945 71.410995,35.900307 68.479256,31.830389 62.678406,30.68745 59.363869,30.034391 55.604057,29.912502 52.38419,30.792917 33.75568,35.886562 20.902557,47.648212 14.49828,65.86586 9.306517,80.634384 19.351879,94.365555 34.999718,94.023674 45.742184,93.788971 55.535007,89.848488 64.127861,83.574036 c 4.081078,-2.979973 6.390244,-7.590813 6.725418,-14.413407 -3.809883,1.987908 -6.334976,3.419792 -8.954841,4.649834 -6.447133,3.026947 -12.773461,6.425972 -19.46119,8.790649 -5.712127,2.019715 -8.308872,-0.149994 -8.384697,-6.085724 -0.187702,-14.693206 6.060208,-26.638904 16.246376,-36.778221 0.869686,-0.865684 2.118634,-1.350349 4.184174,-2.624351 0,2.668693 0.191879,4.400387 -0.03231,6.076431 -1.134746,8.483383 -3.431358,16.564179 -8.231781,23.815842 -1.279762,1.933258 -3.522026,4.559524 2.048432,5.230354 M 249.02368,93.958221 c 2.55713,-1.590629 6.84424,-1.269783 6.45889,-6.079788 -0.34405,-4.294662 -0.27885,-8.634079 -0.83865,-12.895363 -0.38213,-2.908798 -2.23503,-5.727653 -2.19307,-8.568451 0.10239,-6.934177 -1.69936,-9.539936 -8.44679,-10.369667 -14.01593,-1.723537 -32.30153,13.398453 -33.15465,27.418549 -0.48283,7.935051 6.37949,13.392891 13.81165,10.57962 3.18051,-1.20391 6.02052,-3.445915 8.81279,-5.492492 2.18075,-1.598366 4.0489,-3.623246 6.34481,-5.722756 0.59322,9.544564 1.91219,11.213837 9.20502,11.130348 M 100.99644,85.409889 c 0.4545,-1.093208 0.90898,-2.186416 1.36346,-3.279625 1.77697,3.716378 1.95313,6.231743 2.83662,8.467621 1.66855,4.22271 5.39386,4.348824 8.80868,2.979881 2.88177,-1.155265 7.21021,-1.836753 5.17356,-7.139778 -2.39646,-6.239837 2.20292,-13.270157 -2.52805,-19.803177 -1.16479,-1.608474 1.10813,-6.907615 -2.91956,-8.522556 -3.27802,-1.314354 -7.05885,-2.143085 -10.56281,-1.985882 -11.956998,0.536446 -26.596288,14.475769 -28.161374,26.277962 -1.168854,8.814308 6.569015,15.072624 14.625526,11.341003 3.975746,-1.841484 7.266373,-5.162155 11.363948,-8.335449 m 88.05268,-16.566086 c -0.95766,0.814972 -1.91532,1.629944 -3.59172,3.056565 0.5032,-3.542465 1.34619,-6.192063 1.09892,-8.735661 -0.21249,-2.185654 -1.1812,-5.415882 -2.70816,-6.05653 -1.69203,-0.7099 -4.54645,0.705818 -6.60425,1.761864 -1.17692,0.603981 -2.13708,2.217873 -2.57547,3.576862 -2.59148,8.033634 -5.41376,16.035946 -7.20573,24.256466 -0.49846,2.286644 1.56703,6.172508 3.64912,7.727188 2.82266,2.107643 5.41976,-0.460075 7.50606,-2.888656 4.04169,-4.704735 8.2532,-9.263588 13.34624,-14.944725 0,3.720886 -0.49901,5.98764 0.11644,7.894744 0.9333,2.892083 1.98419,6.539589 4.20892,7.993325 2.12794,1.390487 5.8515,0.655082 8.80356,0.288757 0.97032,-0.120415 2.45637,-2.008942 2.45439,-3.086639 -0.0137,-7.424378 -0.39363,-14.847245 -0.5872,-22.272377 -0.16382,-6.284203 -4.17745,-8.71325 -9.70693,-5.440068 -2.81872,1.668549 -5.13333,4.188763 -8.20419,6.868885 m -63.69896,7.066277 c -0.68738,3.082497 -1.51129,6.142357 -2.02709,9.253296 -0.62535,3.77169 -0.57907,7.606422 3.58004,9.422859 3.91403,1.709381 6.02018,-1.226776 8.26199,-3.810272 3.92146,-4.51918 8.02199,-8.882988 12.79114,-14.130074 0,3.771973 -0.56748,6.290024 0.13838,8.377518 0.96182,2.844521 2.29524,6.408379 4.58313,7.717911 2.21385,1.267151 5.87123,0.27816 8.82288,-0.180939 0.82331,-0.128052 1.98934,-1.893661 1.98295,-2.901611 -0.047,-7.420159 -0.37694,-14.838036 -0.56694,-22.257935 -0.1562,-6.100983 -3.88652,-8.56752 -9.26617,-5.631187 -2.85965,1.560852 -5.22595,4.044845 -7.75637,6.181503 -1.27093,1.073166 -2.41095,2.301369 -4.48043,4.299896 0.46356,-3.585068 0.74545,-5.71717 1.01368,-7.851005 0.37877,-3.013127 0.94928,-6.334828 -2.74978,-7.599915 -3.52901,-1.206917 -6.35463,0.744301 -7.83698,3.74324 -2.34012,4.734299 -4.14052,9.735383 -6.49043,15.366715 z"
   id="path2"
   style="display:none" />






<path
   fill="#fafdfa"
   opacity="1"
   stroke="none"
   d="m 315.85922,36.157341 c 4.50119,5.345638 4.47361,11.190708 -0.33786,15.732319 -2.72479,2.571941 -6.15457,4.396953 -9.42505,6.668255 1.78644,0.554092 3.8696,1.024204 5.81067,1.834587 6.32807,2.641887 8.53714,7.853065 5.9617,14.211311 -0.73645,1.818115 -1.70871,3.72609 -3.08389,5.069847 -8.53546,8.340363 -18.52728,14.041542 -30.53818,15.442688 -2.8873,0.336823 -6.00476,-0.107254 -8.84884,-0.841324 -5.90744,-1.524757 -6.43692,-2.983177 -3.71277,-8.1324 -6.00269,-1.790642 -7.01837,-3.206963 -5.163,-9.339333 3.16822,-10.471443 6.71399,-20.828636 10.12976,-31.321548 -1.34622,0.09569 -3.14038,0.22324 -4.93454,0.35078 -0.38556,-0.428909 -0.77115,-0.857818 -1.1567,-1.286724 2.04489,-2.729439 3.50793,-6.686035 6.2341,-7.978607 12.66867,-6.00667 25.7308,-7.379055 39.0646,-0.409851 m -13.93518,33.003044 c -2.34775,-6.431404 -9.13153,-4.944115 -13.78543,-7.836544 -1.41492,3.848759 -2.57526,7.660923 -4.20611,11.259861 -1.68885,3.726914 -3.83402,7.247063 -5.77573,10.850502 14.64471,5.381218 24.1264,0.06476 23.76727,-14.273819 m 0.27777,-20.703773 c 0.23844,-0.959813 0.68857,-1.922287 0.67655,-2.878956 -0.0399,-3.170979 -1.91001,-4.721035 -4.90595,-5.262486 -3.05325,-0.551815 -4.06299,1.273701 -4.7771,3.722588 -1.31924,4.524372 -2.74045,9.019001 -4.32004,14.182484 6.32044,-1.099198 10.10251,-4.469613 13.32654,-9.76363 z"
   id="path16"
   style="display:none" />
<path
   fill="#f8fcf8"
   opacity="1"
   stroke="none"
   d="m 371.06036,50.747746 c -8.13757,4.171638 -11.48626,10.811935 -11.42315,19.303272 0.0374,5.02935 3.03253,8.578529 7.04074,8.838073 3.9223,0.253983 7.71899,-3.610206 8.36981,-8.371376 0.83316,-6.095199 -2.26492,-10.418514 -6.87015,-14.297668 4.01697,-3.673954 8.26752,-5.670029 13.00479,-3.853012 4.92673,1.889694 6.52903,6.616562 6.3935,11.477627 -0.26801,9.612812 -5.19498,16.221431 -14.09897,19.845165 -9.01254,3.667915 -17.63196,3.025162 -25.3859,-3.002388 -1.63522,-1.271118 -2.79226,-3.820648 -3.15283,-5.953033 -1.5365,-9.087159 3.08307,-15.712666 9.5846,-21.172001 6.87457,-5.772614 14.68219,-8.583699 24.01236,-5.142784 -2.37241,0.725063 -4.74485,1.450126 -7.4748,2.328125 z"
   id="path18"
   style="display:none" />
<path
   fill="#fbfdfb"
   opacity="1"
   stroke="none"
   d="m 326.06735,85.146942 c -1.30713,-2.442619 -2.97494,-4.602547 -3.13693,-6.870025 -0.65704,-9.198731 1.84522,-17.818963 6.55716,-25.624672 1.10608,-1.832333 4.71698,-3.945355 6.13,-3.368432 1.98835,0.811833 4.49131,4.26072 4.17804,6.151925 -1.53201,9.249054 -3.69275,18.418167 -6.13449,27.479927 -0.92605,3.436668 -3.97033,4.176765 -7.59378,2.231277 z"
   id="path20"
   style="display:none" />
<path
   fill="#f7fcf7"
   opacity="1"
   stroke="none"
   d="m 332.67419,34.678116 c 2.55909,-0.958004 4.89188,-1.600727 7.2247,-2.243454 0.4003,2.163437 0.81455,4.324501 1.18509,6.493027 0.0525,0.307037 -0.0843,0.656997 -0.17327,0.976024 -1.23041,4.413677 -5.0214,7.639397 -7.96644,6.786568 -3.07458,-0.890347 -3.68338,-4.338078 -1.63873,-9.488533 0.30429,-0.766495 0.75788,-1.473713 1.36865,-2.523632 z"
   id="path22"
   style="display:none" />
<path
   fill="#f6fbf5"
   opacity="1"
   stroke="none"
   d="m 236.99869,71.034363 c -0.44329,1.084717 -0.72992,1.808609 -1.15076,2.871406 1.80571,0.105408 3.25734,0.19014 5.94408,0.346978 -3.54474,2.884315 -6.28588,5.382507 -9.32129,7.448227 -1.15752,0.787719 -3.4307,1.270927 -4.39833,0.650245 -1.10245,-0.70713 -1.97228,-2.881561 -1.80318,-4.280472 0.85834,-7.100906 4.83362,-12.347778 10.44246,-16.853508 3.16736,3.422669 1.98946,6.43425 0.28702,9.817124 z"
   id="path24"
   style="display:none" />
<path
   fill="#f5faf5"
   opacity="1"
   stroke="none"
   d="m 101.07529,71.057465 c -0.44976,1.078239 -0.73862,1.798851 -1.159541,2.84893 1.813121,0.102425 3.267421,0.184578 5.985241,0.338104 -3.57402,2.903893 -6.321949,5.405098 -9.364949,7.471848 -1.155708,0.784912 -3.443657,1.258278 -4.396461,0.630501 -1.098755,-0.723954 -1.949463,-2.906884 -1.768082,-4.308785 0.914406,-7.067558 4.75676,-12.390816 10.523042,-16.822422 3.0647,3.470043 1.92002,6.472485 0.18075,9.841824 z"
   id="path26"
   style="display:none" />

<g
   id="g102"
   transform="matrix(0.51963239,0,0,0.51963239,-6.8163951,-11.499758)"><path
     fill="#159915"
     opacity="1"
     stroke="none"
     d="m 398.0032,69 c 0,10.807243 0,21.114494 0,31.71165 -46.3377,0 -92.40866,0 -138.80264,0 0,-26.015956 0,-52.074428 0,-78.42464 46.0257,0 92.10391,0 138.80264,0 0,15.359131 0,30.786061 0,46.71299 M 315.55609,35.922325 c -13.03067,-6.734188 -26.0928,-5.361803 -38.76147,0.644867 -2.72617,1.292572 -4.18921,5.249168 -6.2341,7.978607 0.38555,0.428906 0.77114,0.857815 1.1567,1.286724 1.79416,-0.12754 3.58832,-0.255085 4.93454,-0.35078 -3.41577,10.492912 -6.96154,20.850105 -10.12976,31.321548 -1.85537,6.13237 -0.83969,7.548691 5.163,9.339333 -2.72415,5.149223 -2.19467,6.607643 3.71277,8.1324 2.84408,0.73407 5.96154,1.178147 8.84884,0.841324 12.0109,-1.401146 22.00272,-7.102325 30.53818,-15.442688 1.37518,-1.343757 2.34744,-3.251732 3.08389,-5.069847 2.57544,-6.358246 0.36637,-11.569424 -5.9617,-14.211311 -1.94107,-0.810383 -4.02423,-1.280495 -5.81067,-1.834587 3.27048,-2.271302 6.70026,-4.096314 9.42505,-6.668255 4.81147,-4.541611 4.83905,-10.386681 0.0347,-15.967335 m 55.86182,14.672482 c 2.3724,-0.72506 4.74484,-1.450123 7.11725,-2.175186 -9.33017,-3.440915 -17.13779,-0.62983 -24.01236,5.142784 -6.50153,5.459335 -11.1211,12.084842 -9.5846,21.172001 0.36057,2.132385 1.51761,4.681915 3.15283,5.953033 7.75394,6.02755 16.37336,6.670303 25.3859,3.002388 8.90399,-3.623734 13.83096,-10.232353 14.09897,-19.845165 0.13553,-4.861065 -1.46677,-9.587933 -6.3935,-11.477627 -4.73727,-1.817017 -8.98782,0.179058 -13.00479,3.853012 4.60523,3.879154 7.70331,8.202469 6.87015,14.297668 -0.65082,4.76117 -4.44751,8.625359 -8.36981,8.371376 -4.00821,-0.259544 -7.00333,-3.808723 -7.04074,-8.838073 -0.0631,-8.491337 3.28558,-15.131634 11.7807,-19.456211 m -45.01902,34.785381 c 3.29191,1.712242 6.33619,0.972145 7.26224,-2.464523 2.44174,-9.06176 4.60248,-18.230873 6.13449,-27.479927 0.31327,-1.891205 -2.18969,-5.340092 -4.17804,-6.151925 -1.41302,-0.576923 -5.02392,1.536099 -6.13,3.368432 -4.71194,7.805709 -7.2142,16.425941 -6.55716,25.624672 0.16199,2.267478 1.8298,4.427406 3.46847,7.103271 m 6.04908,-50.386787 c -0.38455,0.734634 -0.83814,1.441852 -1.14243,2.208347 -2.04465,5.150455 -1.43585,8.598186 1.63873,9.488533 2.94504,0.852829 6.73603,-2.372891 7.96644,-6.786568 0.089,-0.319027 0.22573,-0.668987 0.17327,-0.976024 -0.37054,-2.168526 -0.78479,-4.32959 -1.18509,-6.493027 -2.33282,0.642727 -4.66561,1.28545 -7.45092,2.558739 z"
     id="path4" /><path
     fill="#169a17"
     opacity="1"
     stroke="none"
     d="m 47.846935,72.295013 c -5.149952,-0.7304 -2.907688,-3.356666 -1.627926,-5.289924 4.800423,-7.251663 7.097035,-15.332459 8.231781,-23.815842 0.22419,-1.676044 0.03231,-3.407738 0.03231,-6.076431 -2.06554,1.274002 -3.314488,1.758667 -4.184174,2.624351 -10.186168,10.139317 -16.434078,22.085015 -16.246376,36.778221 0.07583,5.93573 2.67257,8.105439 8.384697,6.085724 6.687729,-2.364677 13.014057,-5.763702 19.46119,-8.790649 2.619865,-1.230042 5.144958,-2.661926 8.954841,-4.649834 -0.335174,6.822594 -2.64434,11.433434 -6.725418,14.413407 C 55.535007,89.848488 45.742184,93.788971 34.999718,94.023674 19.351879,94.365555 9.306517,80.634384 14.49828,65.86586 20.902557,47.648212 33.75568,35.886562 52.38419,30.792917 c 3.219867,-0.880415 6.979679,-0.758526 10.294216,-0.105467 5.80085,1.142939 8.732589,5.212857 8.947838,11.037495 0.447654,12.114014 -11.285241,27.439133 -23.779309,30.570068 z"
     id="path6" /><path
     fill="#189a18"
     opacity="1"
     stroke="none"
     d="m 248.61801,94.01178 c -6.88716,0.02993 -8.20613,-1.639343 -8.79935,-11.183907 -2.29591,2.09951 -4.16406,4.12439 -6.34481,5.722756 -2.79227,2.046577 -5.63228,4.288582 -8.81279,5.492492 -7.43216,2.813271 -14.29448,-2.644569 -13.81165,-10.57962 0.85312,-14.020096 19.13872,-29.142086 33.15465,-27.418549 6.74743,0.829731 8.54918,3.43549 8.44679,10.369667 -0.042,2.840798 1.81094,5.659653 2.19307,8.568451 0.5598,4.261284 0.4946,8.600701 0.83865,12.895363 0.38535,4.810005 -3.90176,4.489159 -6.86456,6.133347 M 237.15532,70.673538 c 1.54581,-3.022049 2.72371,-6.03363 -0.44365,-9.456299 -5.60884,4.50573 -9.58412,9.752602 -10.44246,16.853508 -0.1691,1.398911 0.70073,3.573342 1.80318,4.280472 0.96763,0.620682 3.24081,0.137474 4.39833,-0.650245 3.03541,-2.06572 5.77655,-4.563912 9.32129,-7.448227 -2.68674,-0.156838 -4.13837,-0.24157 -5.94408,-0.346978 0.42084,-1.062797 0.70747,-1.786689 1.30739,-3.232231 z"
     id="path8" /><path
     fill="#189b19"
     opacity="1"
     stroke="none"
     d="m 100.74797,85.670853 c -3.849105,2.91233 -7.139732,6.233001 -11.115478,8.074485 -8.056511,3.731621 -15.79438,-2.526695 -14.625526,-11.341003 1.565086,-11.802193 16.204376,-25.741516 28.161374,-26.277962 3.50396,-0.157203 7.28479,0.671528 10.56281,1.985882 4.02769,1.614941 1.75477,6.914082 2.91956,8.522556 4.73097,6.53302 0.13159,13.56334 2.52805,19.803177 2.03665,5.303025 -2.29179,5.984513 -5.17356,7.139778 -3.41482,1.368943 -7.14013,1.242829 -8.80868,-2.979881 -0.88349,-2.235878 -1.05965,-4.751243 -2.83662,-8.467621 -0.45448,1.093209 -0.90896,2.186417 -1.61193,3.540589 m 0.48821,-14.971009 c 1.57838,-3.011718 2.72306,-6.01416 -0.34164,-9.484203 -5.766282,4.431606 -9.608636,9.754864 -10.523042,16.822422 -0.181381,1.401901 0.669327,3.584831 1.768082,4.308785 0.952804,0.627777 3.240753,0.154411 4.396461,-0.630501 3.043,-2.06675 5.790929,-4.567955 9.364949,-7.471848 -2.71782,-0.153526 -4.17212,-0.235679 -5.985241,-0.338104 0.420921,-1.050079 0.709781,-1.770691 1.320431,-3.206551 z"
     id="path10" /><path
     fill="#179a17"
     opacity="1"
     stroke="none"
     d="m 189.31332,68.571365 c 2.80666,-2.407684 5.12127,-4.927898 7.93999,-6.596447 5.52948,-3.273182 9.54311,-0.844135 9.70693,5.440068 0.19357,7.425132 0.57351,14.847999 0.5872,22.272377 0.002,1.077697 -1.48407,2.966224 -2.45439,3.086639 -2.95206,0.366325 -6.67562,1.10173 -8.80356,-0.288757 -2.22473,-1.453736 -3.27562,-5.101242 -4.20892,-7.993325 -0.61545,-1.907104 -0.11644,-4.173858 -0.11644,-7.894744 -5.09304,5.681137 -9.30455,10.23999 -13.34624,14.944725 -2.0863,2.428581 -4.6834,4.996299 -7.50606,2.888656 -2.08209,-1.55468 -4.14758,-5.440544 -3.64912,-7.727188 1.79197,-8.22052 4.61425,-16.222832 7.20573,-24.256466 0.43839,-1.358989 1.39855,-2.972881 2.57547,-3.576862 2.0578,-1.056046 4.91222,-2.471764 6.60425,-1.761864 1.52696,0.640648 2.49567,3.870876 2.70816,6.05653 0.24727,2.543598 -0.59572,5.193196 -1.09892,8.735661 1.6764,-1.426621 2.63406,-2.241593 3.85592,-3.329003 z"
     id="path12" /><path
     fill="#179a18"
     opacity="1"
     stroke="none"
     d="m 125.51069,75.538498 c 2.18938,-5.25975 3.98978,-10.260834 6.3299,-14.995133 1.48235,-2.998939 4.30797,-4.950157 7.83698,-3.74324 3.69906,1.265087 3.12855,4.586788 2.74978,7.599915 -0.26823,2.133835 -0.55012,4.265937 -1.01368,7.851005 2.06948,-1.998527 3.2095,-3.22673 4.48043,-4.299896 2.53042,-2.136658 4.89672,-4.620651 7.75637,-6.181503 5.37965,-2.936333 9.10997,-0.469796 9.26617,5.631187 0.19,7.419899 0.51994,14.837776 0.56694,22.257935 0.006,1.00795 -1.15964,2.773559 -1.98295,2.901611 -2.95165,0.459099 -6.60903,1.44809 -8.82288,0.180939 -2.28789,-1.309532 -3.62131,-4.87339 -4.58313,-7.717911 -0.70586,-2.087494 -0.13838,-4.605545 -0.13838,-8.377518 -4.76915,5.247086 -8.86968,9.610894 -12.79114,14.130074 -2.24181,2.583496 -4.34796,5.519653 -8.26199,3.810272 -4.15911,-1.816437 -4.20539,-5.651169 -3.58004,-9.422859 0.5158,-3.110939 1.33971,-6.170799 2.18762,-9.624878 z"
     id="path14" /><path
     fill="#179a18"
     opacity="1"
     stroke="none"
     d="m 301.98199,69.568497 c 0.30118,13.930465 -9.18051,19.246925 -23.82522,13.865707 1.94171,-3.603439 4.08688,-7.123588 5.77573,-10.850502 1.63085,-3.598938 2.79119,-7.411102 4.20611,-11.259861 4.6539,2.892429 11.43768,1.40514 13.84338,8.244656 z"
     id="path28" /><path
     fill="#1c9c1d"
     opacity="1"
     stroke="none"
     d="m 302.06201,48.807289 c -3.08423,4.94334 -6.8663,8.313755 -13.18674,9.412953 1.57959,-5.163483 3.0008,-9.658112 4.32004,-14.182484 0.71411,-2.448887 1.72385,-4.274403 4.7771,-3.722588 2.99594,0.541451 4.86609,2.091507 4.90595,5.262486 0.012,0.956669 -0.43811,1.919143 -0.81635,3.229633 z"
     id="path30" /></g>
</svg>
