<?xml version="1.0" encoding="UTF-8" standalone="no"?>
<svg
   version="1.1"
   id="Layer_1"
   x="0px"
   y="0px"
   width="200"
   viewBox="0 0 200 79.241994"
   enable-background="new 0 0 2762 1457"
   xml:space="preserve"
   sodipodi:docname="replek_adobe_express.svg"
   inkscape:version="1.1.2 (0a00cf5339, 2022-02-04)"
   height="79.241997"
   xmlns:inkscape="http://www.inkscape.org/namespaces/inkscape"
   xmlns:sodipodi="http://sodipodi.sourceforge.net/DTD/sodipodi-0.dtd"
   xmlns="http://www.w3.org/2000/svg"
   xmlns:svg="http://www.w3.org/2000/svg"><defs
   id="defs75" /><sodipodi:namedview
   id="namedview73"
   pagecolor="#505050"
   bordercolor="#eeeeee"
   borderopacity="1"
   inkscape:pageshadow="0"
   inkscape:pageopacity="0"
   inkscape:pagecheckerboard="true"
   showgrid="false"
   inkscape:zoom="8.5349995"
   inkscape:cx="104.92092"
   inkscape:cy="50.43937"
   inkscape:window-width="1920"
   inkscape:window-height="1016"
   inkscape:window-x="0"
   inkscape:window-y="27"
   inkscape:window-maximized="1"
   inkscape:current-layer="Layer_1"
   width="200px"
   fit-margin-top="0"
   fit-margin-left="0"
   fit-margin-right="0"
   fit-margin-bottom="0"
   height="79.242px" />
<path
   fill="#ffffff"
   opacity="1"
   stroke="none"
   d="m 1538.0021,1181.0391 c -541.66662,0 -1082.83333,0 -1624.00002,0 0,-485.66668 0,-971.33333 0,-1456.99999 920.66669,0 1841.33342,0 2762.00002,0 0,485.66666 0,971.33331 0,1456.99999 -379.1667,0 -758.3334,0 -1138,0 M 0.03263608,513.84239 c -0.01058,20.83155 -0.04575,41.66309 -0.02361,62.49463 0.01636,15.39276 2.00566902,30.54474 6.04314502,45.39453 C 33.97416,724.42841 149.30455,777.54731 244.59311,730.18761 c 61.78696,-30.70899 93.87195,-82.19769 96.33811,-151.39685 0.78287,-21.96582 0.28534,-43.97717 1.27212,-65.95551 19.63251,-0.53912 39.37052,0.0308 58.87772,-1.82538 58.44733,-5.56115 108.9234,-29.40527 151.11938,-70.01617 43.8891,-42.24054 69.6648,-93.85004 77.07892,-154.4881 4.09247,-33.47101 1.87665,-66.53491 -7.39477,-98.8815 C 603.23023,122.54164 564.95838,71.954448 507.18348,36.625378 467.56202,12.397078 424.39893,-0.14055213 377.70191,0.00114787 c -52.9809,0.16076 -105.96262,0.0277 -158.944,0.0453 -9.49484,0.003 -18.98962,0.11786 -29.47498,0.20444 -14.46652,0.33362 -29.15342,-0.83572 -43.36337,1.24777003 C 61.52912,13.872288 -0.00252092,85.816958 1.2076178e-5,171.11426 0.00271208,261.72529 -4.6792382e-4,352.33625 0.00991208,442.94727 c 2.28e-4,1.99365 0.132057,3.98725 0.0099,6.92462 0.05623,21.00898 0.112458,42.01789 0.01284,63.97046 M 1476.9843,551.53911 c 0,-34.84204 0,-69.68414 0,-105.80359 2.5785,3.57623 4.3128,5.9859 6.0515,8.39246 12.637,17.49139 28.4525,30.91015 49.4835,36.98712 64.1898,18.54791 136.3027,-8.16522 164.614,-83.85162 8.5351,-22.8172 12.2417,-46.55957 13.4247,-70.76423 1.4379,-29.42437 0.2288,-58.69256 -8.6711,-86.99408 -16.2078,-51.54046 -49.9261,-85.41174 -103.5879,-95.71853 -49.9384,-9.59149 -91.5036,5.24023 -120.9318,48.53491 -0.7837,1.15305 -1.6902,2.22263 -3.3253,4.35678 0,-16.80926 0,-32.34842 0,-48.03534 -27.5439,0 -54.6141,0 -81.7776,0 0,152.79639 0,305.30213 0,457.76636 28.4049,0 56.4435,0 84.72,0 0,-21.5658 0,-42.71802 0,-64.87024 m 904.5991,-179.41974 c 8.5569,-7.65381 17.1138,-15.30768 25.6707,-22.96149 -0.2525,-0.1372 0.7905,1.53125 1.7597,3.24146 24.6907,43.56171 49.408,87.10858 73.9878,130.73285 1.7927,3.18182 3.7756,4.25683 7.4109,4.23865 31.3264,-0.15668 62.6538,-0.0867 93.981,-0.10218 1.5705,-7.3e-4 3.1411,-0.1665 5.5774,-0.30444 -40.9744,-68.57465 -81.5464,-136.47565 -122.1729,-204.46796 39.187,-40.75323 78.1208,-81.24307 117.8159,-122.52447 -2.603,0 -3.904,-3e-5 -5.2048,-3e-5 -32.3269,2.4e-4 -64.6543,0.0554 -96.9807,-0.0784 -3.4998,-0.0145 -5.752,1.05685 -8.0432,3.69021 -33.6846,38.71045 -67.4842,77.32068 -101.2581,115.9535 -1.0188,1.16546 -2.0547,2.3161 -3.0828,3.47363 -0.3598,-0.19531 -0.7194,-0.39063 -1.0793,-0.58594 0,-79.34293 0,-158.68585 0,-237.973852 -28.2947,0 -56.0305,0 -83.7498,0 0,147.717142 0,295.109042 0,442.555272 28.042,0 55.7818,0 83.9678,0 0,-2.06201 0,-3.8551 0,-5.64819 0,-27.16132 0.5696,-54.34027 -0.2712,-81.47553 -0.3528,-11.38177 1.8559,-20.45037 11.6716,-27.76312 M 1142.5412,234.03252 c 15.3809,-11.58844 33.0849,-14.11893 51.6416,-13.10834 38.8986,2.11841 65.8366,29.73792 67.1281,69.32202 -29.7414,0 -59.4703,0 -88.8409,0 0,19.23084 0,37.83808 0,56.36994 59.8184,0 119.0264,0 178.2133,0 0,-11.74402 0.2673,-23.07172 -0.059,-34.38233 -0.5822,-20.18872 -2.8012,-40.18341 -9.5225,-59.38519 -14.9495,-42.70779 -41.5634,-74.72159 -84.6757,-91.28055 -28.2327,-10.84384 -57.5991,-13.42322 -87.5068,-10.99512 -25.9662,2.10813 -50.33,9.43122 -72.4268,23.51456 -42.5999,27.15088 -63.1578,67.60345 -69.3894,116.35101 -3.5654,27.89203 -3.1492,55.80597 1.8182,83.58747 7.3047,40.85315 26.6536,73.6889 62.562,95.97534 51.04,31.67779 105.4814,35.98291 161.8886,19.09979 39.3251,-11.77014 67.4371,-37.89587 86.0565,-74.2514 3.7402,-7.3028 6.2612,-15.13837 6.622,-23.83038 -28.7234,0 -56.8694,-0.032 -85.0147,0.10284 -1.2865,0.006 -3.1272,1.20477 -3.7661,2.36682 -12.8796,23.42676 -33.3079,34.07538 -59.3384,35.11987 -42.6739,1.71234 -82.0144,-18.6007 -85.9623,-75.26928 -1.5285,-21.94214 -1.784,-43.9256 2.0373,-65.74939 3.6277,-20.7193 11.3281,-39.26471 28.5348,-53.55768 m 883.3921,172.57721 c -8.1556,-8.20221 -13.4996,-18.03394 -17.0437,-28.97235 -4.5315,-13.98493 -4.9532,-28.42871 -5.24,-42.92798 -0.3929,-19.86463 0.072,-39.67041 5.4162,-58.95368 5.7642,-20.79888 16.2346,-38.32495 36.499,-48.14349 14.0762,-6.82019 29.1988,-8.01819 44.4544,-6.3996 22.5361,2.39105 41.0688,12.08899 53.3015,31.83539 6.9431,11.20776 9.7051,23.69605 10.6279,37.19959 -30.2021,0 -59.7951,0 -89.0788,0 0,19.12732 0,37.82775 0,56.48266 59.854,0 118.9192,0 178.0461,0 0,-12.78155 0.2818,-25.26379 -0.061,-37.72876 -0.627,-22.76764 -4.1267,-45.07751 -13.0173,-66.19983 -14.5418,-34.54782 -37.3265,-61.64172 -72.0047,-77.4765 -27.718,-12.65658 -57.0571,-16.21438 -87.2568,-15.4332 -75.6961,1.95795 -134.1901,51.17615 -148.5983,125.50382 -5.9512,30.69964 -6.2469,61.55182 -1.7066,92.43732 2.8731,19.54461 8.4802,38.27246 18.1762,55.61608 16.8412,30.12421 43.5506,48.48664 74.4058,61.53602 33.8137,14.30072 69.1616,16.13781 105.0273,10.91888 45.7415,-6.65613 81.552,-29.29047 106.9209,-68.06238 7.241,-11.06622 12.2722,-23.05737 13.9109,-36.27514 -0.583,-0.22498 -0.8891,-0.44623 -1.1955,-0.44672 -27.9942,-0.0427 -55.9883,-0.10046 -83.9817,0.007 -1.2805,0.005 -3.105,1.20349 -3.7515,2.36194 -13.0981,23.47479 -33.6445,34.245 -59.8901,35.13745 -23.8123,0.8097 -45.637,-4.52594 -63.9597,-22.01684 m -252.5788,79.54486 c 1.5153,0.3761 3.0298,1.07605 4.546,1.08002 25.8274,0.0671 51.6551,0.0534 77.4826,0.0315 1.2536,-10e-4 2.5069,-0.24084 3.6515,-0.35834 0,-148.18902 0,-295.93103 0,-443.834742 -28.6355,0 -57.0083,0 -85.7768,0 0,147.607022 0,294.873132 0.097,443.081512 m -772.81,-255.69077 c 0,-26.2893 0,-52.57861 0,-79.23916 -3.30082,-0.18598 -6.09322,-0.41532 -8.88982,-0.48996 -33.6062,-0.89658 -61.8165,9.89416 -81.94941,38.01477 -4.55329,6.35986 -8.93018,12.84659 -13.35187,19.29983 -1.33209,1.94412 -2.54126,3.97245 -3.8067,5.96219 -0.35938,-0.14136 -0.71881,-0.28271 -1.07819,-0.42404 0,-18.24811 0,-36.49622 0,-54.89148 -27.53607,0 -54.58197,0 -81.85083,0 0,109.57648 0,218.81 0,328.31671 28.82263,0 57.38959,0 86.48566,0 0,-2.12884 0,-4.07971 6e-5,-6.03052 6.7e-4,-50.32422 -0.18207,-100.64953 0.1347,-150.97174 0.0761,-12.10186 1.07239,-24.30743 2.92731,-36.26654 4.42096,-28.50207 20.86977,-46.51788 49.22597,-52.83148 7.5869,-1.68927 15.4595,-2.43481 23.2403,-2.82562 9.4356,-0.474 18.9132,-0.11255 28.91252,-0.11255 0,-1.60858 0,-4.07404 3e-4,-7.51041 m 31.6433,691.28786 c 14.635,-38.9466 29.27,-77.8933 43.905,-116.8399 0.375,0.069 0.7501,0.1372 1.1251,0.2058 0,54.1575 0,108.3149 0,162.4369 8.5,0 16.418,0 24.4874,0 0,-65.7331 0,-131.1421 0,-197.079 -10.7092,0 -21.1741,0.144 -31.6309,-0.085 -3.2541,-0.071 -4.6083,1.0972 -5.7016,4.0241 -16.1014,43.1063 -32.3093,86.1729 -48.5135,129.2408 -3.9468,10.4898 -7.9719,20.9497 -12.2129,32.085 -0.8137,-1.8286 -1.3381,-2.8596 -1.742,-3.9358 -12.95762,-34.53 -25.90962,-69.0622 -38.84902,-103.5989 -6.7032,-17.8916 -13.3345,-35.8103 -20.1519,-53.6582 -0.6026,-1.5774 -2.3139,-3.8518 -3.563,-3.8861 -11.1038,-0.3046 -22.2196,-0.1773 -33.45992,-0.1773 0,66.0923 0,131.6214 0,197.047 8.31892,0 16.22032,0 24.73762,0 0,-53.9743 0,-107.6023 0,-161.2302 1.7886,1.7577 2.6334,3.6684 3.3661,5.6212 19.0268,50.7072 38.0735,101.4068 56.9812,152.1582 1.1385,3.0558 2.6103,4.0573 5.7533,3.8666 4.48302,-0.2721 9.01272,-0.3163 13.48872,0.01 3.5627,0.2576 5.2056,-0.9647 6.4242,-4.3696 4.9258,-13.7622 10.1912,-27.4026 15.5561,-41.8328 m 1314.7437,82.15999 c -9.476,-3.6103 -16.8964,-9.18799 -18.4897,-19.61009 -8.0676,0 -15.6179,0 -23.3586,0 1.3444,15.74519 9.1503,26.73379 22.5876,33.48509 19.0005,9.5465 39.1033,10.2557 59.4509,5.5653 19.513,-4.4978 33.4102,-16.0633 38.7613,-35.60249 2.9057,-10.6105 4.508,-21.8884 4.6474,-32.8911 0.5261,-41.4813 0.2107,-82.9735 0.2102,-124.4615 0,-1.6234 0,-3.2467 0,-5.146 -7.5896,0 -14.6699,0 -22.5061,0 0,6.2213 0,12.3409 0,19.3999 -9.2358,-11.9916 -14.7453,-16.4605 -23.9411,-19.7858 -26.5425,-9.5982 -57.91,1.1513 -72.5613,25.2339 -12.376,20.3428 -14.5955,42.6286 -10.3701,65.5238 4.2741,23.161 16.0207,41.2462 38.9914,49.8458 25.7273,9.632 54.6194,2.272 66.8084,-20.0163 0.079,-0.1448 0.551,-0.075 1.1064,-0.1332 0.3904,11.1978 0.051,22.2922 -3.3093,33.0446 -5.0947,16.3048 -15.7708,26.78279 -33.1255,28.12559 -7.9365,0.614 -16.0835,-1.4953 -24.9019,-2.5775 m -922.283,-100.69059 c 3.9892,-15.8063 7.9785,-31.6125 11.9679,-47.4188 0.3288,0.056 0.6577,0.1128 0.9865,0.1692 9.6107,37.238 19.2215,74.4762 28.8338,111.7209 8.6424,0 16.7672,0 25.1947,0 15.0764,-47.4551 30.1266,-94.8274 45.3425,-142.7218 -7.4414,0 -14.0961,0.1474 -20.7389,-0.068 -2.8773,-0.093 -3.9713,0.8717 -4.7165,3.6444 -7.4602,27.7546 -15.0685,55.4694 -22.6653,83.1872 -2.643,9.6432 -5.3698,19.2634 -8.4359,30.2463 -3.0592,-11.8542 -5.7528,-22.2937 -8.4473,-32.7329 -6.892,-26.7029 -13.76,-53.4122 -20.7406,-80.0919 -0.3956,-1.5121 -1.6732,-3.9442 -2.6178,-3.9813 -8.0898,-0.3183 -16.1975,-0.1824 -24.1365,-0.1824 -9.618,39.0787 -19.0659,77.4654 -28.5136,115.8522 -0.3219,-0.028 -0.6438,-0.056 -0.9657,-0.084 -10.6724,-38.5288 -21.3447,-77.0576 -31.9812,-115.4573 -8.845,0 -17.2261,0 -25.9943,0 1.3635,4.1913 2.6046,7.9644 3.8191,11.746 13.6109,42.3837 27.2658,84.7532 40.7273,127.1842 0.9822,3.0956 2.4006,3.7841 5.2792,3.6982 5.8278,-0.1738 11.6743,-0.2526 17.494,0.027 3.2096,0.154 4.1862,-1.059 4.9117,-4.0296 4.8888,-20.0161 10.0108,-39.9752 15.3969,-60.7069 m 496.8608,-58.1788 c -16.4396,-20.4152 -38.1962,-26.0058 -63.0843,-22.2774 -12.2793,1.8394 -22.8437,7.06 -30.168,17.6106 -0.5923,0.8534 -1.2422,1.6668 -2.7666,3.7022 0,-25.364 0,-49.2403 0,-73.2893 -8.1015,0 -15.6665,0 -23.1059,0 0,65.8382 0,131.3524 0,196.8081 7.8542,0 15.2804,0 23.2902,0 0,-5.9611 0,-11.6634 0,-17.5535 4.7601,4.1657 8.7164,8.4653 13.4375,11.6207 27.027,18.0652 66.9987,9.9478 85.1097,-17.0383 18.514,-27.5863 17.4935,-71.8607 -2.7126,-99.5831 m 102.9928,58.5211 c 19.9009,0 39.802,0 60.6919,0 -1.1834,-10.0217 -1.5139,-19.2387 -3.4688,-28.0973 -4.6752,-21.1865 -14.6486,-39.0094 -35.3977,-48.5062 -28.7417,-13.1549 -63.3598,-3.0913 -81.1213,23.9027 -15.4147,23.4276 -15.8416,48.8909 -7.6788,74.776 5.8556,18.569 16.8402,33.3589 35.6627,40.5823 17.7505,6.8121 35.9038,6.9034 53.8164,0.5289 18.6233,-6.6277 33.853,-26.3464 34.5496,-44.3168 -5.8165,0 -11.6351,0.2274 -17.4248,-0.082 -3.7303,-0.1991 -5.4236,0.7982 -6.6063,4.6572 -3.7871,12.3597 -12.288,20.0786 -25.121,22.1766 -5.6885,0.9298 -11.6448,1.2157 -17.3797,0.6952 -23.4248,-2.1258 -40.5786,-23.6553 -36.7825,-46.3174 15.0225,0 30.1414,0 46.2603,4e-4 m -467.3191,43.7808 c 7.4429,9.8762 16.9611,16.9032 28.8312,20.468 14.3575,4.3116 28.936,4.6573 43.4221,0.936 22.2191,-5.7079 38.2393,-23.9385 40.8799,-46.3162 -6.168,0 -12.2987,0.1672 -18.4138,-0.069 -3.1502,-0.1218 -4.5653,0.7183 -5.5326,3.9751 -3.7305,12.5627 -12.1173,20.3261 -25.1105,22.9104 -9.3389,1.8573 -18.5645,1.4403 -27.6156,-1.4942 -17.0691,-5.5344 -29.0051,-22.786 -26.9729,-44.4341 35.3217,0 70.6976,0 106.635,0 -0.4816,-6.8738 -0.5913,-13.2116 -1.4253,-19.4526 -2.5146,-18.8195 -9.088,-35.887 -23.8379,-48.599 -24.963,-21.5143 -66.195,-17.4933 -88.7031,8.3224 -23.3882,26.8249 -24.5055,71.9392 -2.1565,103.7532 m 631.8418,-109.7732 c -2.3584,3.0357 -4.7165,6.0716 -8.0027,10.3017 0,-8.5639 0,-15.6051 0,-22.514 -7.5954,0 -14.6504,0 -21.6587,0 0,47.618 0,94.8471 0,142.1841 7.8523,0 15.406,0 23.3921,0 0,-2.1319 0,-3.9306 3e-4,-5.7294 0.049,-26.652 -0.3487,-53.3147 0.2815,-79.9529 0.5686,-24.0509 17.8024,-39.764 41.8501,-39.4444 18.3347,0.2437 29.0893,11.1198 29.0966,29.4597 0.012,30.1511 0.01,60.3022 0.01,90.4533 0,1.7576 0,3.5152 0,5.2832 8.1016,0 15.5122,0 23.373,0 0,-2.0695 0,-3.8741 0,-5.6787 0,-23.6545 0.035,-47.3091 -0.017,-70.9635 -0.021,-9.3257 0.2678,-18.6919 -0.4827,-27.9669 -1.1279,-13.9432 -5.8557,-26.3518 -18.458,-34.2148 -20.1204,-12.554 -52.2913,-8.636 -69.3821,8.7826 m -977.0751,94.9471 c 13.6892,-35.629 27.3784,-71.2581 41.3202,-107.5447 -7.4261,0 -14.2084,0.1526 -20.9781,-0.07 -2.9949,-0.099 -4.3219,0.9043 -5.2851,3.7532 -9.254,27.3759 -18.6558,54.7015 -28.0283,82.0372 -3.4707,10.1227 -6.9759,20.2336 -10.8049,31.3339 -0.7022,-1.4928 -0.9959,-2.0035 -1.1912,-2.5494 -5.318,-14.8578 -10.6346,-29.7162 -15.9333,-44.581 -7.8084,-21.905 -15.5554,-43.8322 -23.4981,-65.6884 -0.6037,-1.6617 -2.495,-3.9753 -3.8858,-4.0456 -7.784,-0.3929 -15.5981,-0.1891 -24.0894,-0.1891 1.0911,2.8289 1.9496,5.1209 2.8556,7.3938 17.4739,43.831 34.9675,87.6542 52.3718,131.5129 0.6034,1.5203 0.898,3.6016 0.3609,5.0631 -2.8064,7.6372 -5.6999,15.2597 -8.9954,22.6958 -4.6771,10.55329 -13.8227,14.67989 -24.9877,11.71089 -2.5055,-0.6664 -4.9992,-1.3765 -7.932,-2.186 0,6.5337 -0.2037,12.5296 0.1532,18.492 0.082,1.372 1.9021,3.529 3.2366,3.805 24.7145,5.1092 37.3014,-1.6712 46.6414,-19.4932 1.3876,-2.6478 2.8018,-5.30539 3.8957,-8.07979 8.2242,-20.86 16.3713,-41.7503 24.7739,-63.3704 m 540.7904,35.3621 c 6.2746,0 12.5492,0 18.9305,0 0,-66.0467 0,-131.5352 0,-197.1183 -7.9054,0 -15.4913,0 -23.5021,0 0,1.9206 0,3.5465 0,5.1723 0,18.4822 2e-4,36.9645 10e-5,55.4467 -4e-4,43.7913 0,87.5824 0,131.3737 5e-4,2.5312 -0.8834,5.7578 4.5666,5.1256 m -35.7448,-197.2901 c -7.4118,0 -14.8234,0 -22.2405,0 0,66.0585 0,131.4192 0,196.9777 7.8443,0 15.3906,0 23.281,0 0,-1.6101 0,-2.9163 0,-4.2224 1e-4,-62.9289 0,-125.8578 -0.011,-188.7866 -2e-4,-1.1542 -0.1726,-2.3085 -1.0296,-3.9687 m 412.3261,185.9314 c 0,-43.7162 0,-87.4324 0,-131.3083 -8.0344,0 -15.4406,0 -23.051,0 0,47.571 0,94.9071 0,142.403 7.6995,0 15.1067,0 23.0513,0 0,-3.5327 0,-6.8168 -3e-4,-11.0947 m 333.0638,-14.7258 c 0,8.5869 0,17.1738 0,25.7747 10.5852,0 20.4685,0 30.2602,0 0,-10.3381 0,-20.3577 0,-30.488 -9.2075,0 -18.0141,0.1283 -26.8132,-0.069 -3.0938,-0.07 -3.7373,1.2781 -3.447,4.7827 m -333.7327,-171.0728 c -7.4404,0 -14.8811,0 -22.4976,0 0,9.5824 0,18.8652 0,28.3191 7.7095,0 15.2803,0 23.0469,0 0,-9.399 0,-18.5189 -0.5493,-28.3191 z"
   id="path2"
   style="display:none" />























<path
   fill="#fefefe"
   opacity="1"
   stroke="none"
   d="m 1492.7282,252.812 c 15.3657,-21.06391 36.605,-27.4924 61.1639,-26.27197 31.3834,1.55957 50.0625,19.44421 59.8157,47.65246 13.0804,37.83106 12.4133,75.61408 -4.5388,112.16437 -12.5425,27.04297 -34.9002,39.31128 -64.4865,38.01092 -29.6299,-1.30224 -50.5097,-15.65594 -62.167,-43.10125 -5.0009,-11.77417 -7.2728,-24.21771 -8.0477,-36.84058 -1.4652,-23.87213 -0.5254,-47.6391 7.6497,-70.42938 2.6086,-7.27265 6.8858,-13.9469 10.6107,-21.18457 z"
   id="path50"
   style="display:none" />
<path
   fill="#ffffff"
   opacity="1"
   stroke="none"
   d="m 303.84681,63.545788 c 33.28494,0.31751 66.72021,-2.63287 99.80514,2.38254 53.00925,8.0358 95.36752,34.415802 126.95749,77.550752 27.185,37.12015 38.72174,79.12818 36.22766,124.97391 -4.6709,85.85822 -70.36529,160.53326 -154.9967,176.65161 -23.11566,4.40247 -46.41785,3.67133 -70.23673,3.12897 -0.54287,-94.995 -0.31009,-189.45624 -0.8858,-283.91254 -0.0839,-13.7738 -3.06937,-27.76074 -6.40048,-41.23163 -5.45889,-22.07559 -16.62384,-41.579712 -30.47058,-59.543612 z"
   id="path52"
   style="display:none" />


<path
   fill="#ffffff"
   opacity="1"
   stroke="none"
   d="m 171.56757,63.548048 c 45.34705,2.21579 77.54285,23.57605 96.67719,64.224552 6.16699,13.10095 8.79898,27.12793 8.79773,41.64078 -0.008,92.77734 0.0101,185.55468 0.11074,278.75988 0.0911,0.42792 -0.0811,0.6316 -0.61657,0.6551 -70.13105,0.007 -139.72664,-0.01 -209.32225,-0.012 -0.98737,-6e-5 -1.97474,0.18805 -2.96212,0.28833 0,-6e-5 -0.1687,-0.21356 -0.28012,-0.2926 -0.0468,-2.23822 0.0741,-4.39752 0.0743,-6.55676 0.01,-90.09241 -0.0132,-180.18482 0.0215,-270.27723 0.0127,-32.96826 12.12958,-60.68368 36.98224,-82.413172 19.96459,-17.45572 43.52092,-25.89389 70.51729,-26.01685 z"
   id="path58"
   style="display:none" />
<path
   fill="#ffffff"
   opacity="1"
   stroke="none"
   d="m 277.06281,512.92583 c 0.0352,20.85968 -0.0153,41.68628 -0.0231,62.51294 -0.0242,64.62884 -53.14963,113.24963 -117.43723,107.46326 -43.7697,-3.93958 -82.13447,-37.24787 -92.34674,-80.82898 -2.06769,-8.82398 -2.86313,-18.08967 -3.06534,-27.17792 -0.45208,-20.31781 -0.16069,-40.6521 -0.21487,-61.45239 -0.0427,-0.47272 0.10033,-0.55811 0.58517,-0.59162 71.11721,-0.0543 141.74955,-0.0752 212.38187,-0.0961 0,6e-5 0.0541,0.13776 0.12027,0.17078 z"
   id="path60"
   style="display:none" />
<path
   fill="#fefefe"
   opacity="1"
   stroke="none"
   d="m 2361.4906,948.56351 c -15.3725,-1.3661 -25.6594,-9.406 -31.115,-22.9503 -7.9524,-19.7428 -8.5522,-39.9208 -0.1909,-59.7404 6.5288,-15.4752 20.8399,-24.1187 37.3049,-23.5101 17.3514,0.6411 30.326,10.0737 35.8143,26.8644 6.2287,19.057 5.8115,38.1255 -2.8033,56.3776 -7.5686,16.0361 -20.6787,23.7989 -39.01,22.9588 z"
   id="path62"
   style="display:none" />
<path
   fill="#fefefe"
   opacity="1"
   stroke="none"
   d="m 1905.4311,864.74271 c 9.4663,19.9529 9.1272,40.0515 1.8413,59.9542 -5.8706,16.0368 -17.9445,24.8172 -35.2696,25.5382 -18.3181,0.7625 -32.9106,-6.149 -40.7589,-23.082 -9.4317,-20.3491 -9.2637,-41.4159 0.091,-61.8108 6.853,-14.9414 19.3578,-22.643 35.7957,-22.8945 16.8752,-0.2581 29.807,7.017 38.3009,22.2949 z"
   id="path64"
   style="display:none" />
<path
   fill="#fcfcfc"
   opacity="1"
   stroke="none"
   d="m 1991.348,852.36771 c 14.4485,-11.7378 30.013,-13.2117 46.0132,-5.1861 14.0752,7.0598 20.6328,19.4873 22.0244,35.3099 -27.4218,0 -54.3295,0 -81.7563,0 0.8613,-11.8519 5.0603,-21.7848 13.7187,-30.1238 z"
   id="path66"
   style="display:none" />
<path
   fill="#fcfcfc"
   opacity="1"
   stroke="none"
   d="m 1647.4105,877.67901 c 0.2531,1.8351 0.3978,3.2618 0.5643,4.9033 -27.4212,0 -54.3685,0 -81.3149,0 -0.1809,-19.3113 14.5352,-37.8265 35.5839,-40.0161 21.8618,-2.2742 41.6011,12.5372 45.1667,35.1128 z"
   id="path68"
   style="display:none" />
<g
   id="g468"
   transform="matrix(0.07722095,0,0,0.07722095,-6.737038,-21.304112)"><path
     fill="#4d4e50"
     opacity="1"
     stroke="none"
     d="m 1563.9822,829 c 0,21.65222 0,42.80444 0,64.37024 -28.2765,0 -56.3151,0 -84.72,0 0,-152.46423 0,-304.96997 0,-457.76636 27.1635,0 54.2337,0 81.7776,0 0,15.68692 0,31.22608 0,48.03534 1.6351,-2.13415 2.5416,-3.20373 3.3253,-4.35678 29.4282,-43.29468 70.9934,-58.1264 120.9318,-48.53491 53.6618,10.30679 87.3801,44.17807 103.5879,95.71853 8.8999,28.30152 10.109,57.56971 8.6711,86.99408 -1.183,24.20466 -4.8896,47.94703 -13.4247,70.76423 -28.3113,75.6864 -100.4242,102.39953 -164.614,83.85162 -21.031,-6.07697 -36.8465,-19.49573 -49.4835,-36.98712 -1.7387,-2.40656 -3.473,-4.81623 -6.0515,-8.39246 0,36.11945 0,70.96155 0,106.30359 m 15.5328,-298.93744 c -3.5138,6.948 -7.791,13.62225 -10.3996,20.8949 -8.1751,22.79028 -9.1149,46.55725 -7.6497,70.42938 0.7749,12.62287 3.0468,25.06641 8.0477,36.84058 11.6573,27.44531 32.5371,41.79901 62.167,43.10125 29.5863,1.30036 51.944,-10.96795 64.4865,-38.01092 16.9521,-36.55029 17.6192,-74.33331 4.5388,-112.16437 -9.7532,-28.20825 -28.4323,-46.09289 -59.8157,-47.65246 -24.5589,-1.22043 -45.7982,5.20806 -61.375,26.56164 z"
     id="path4" /><path
     fill="#4c4d4f"
     opacity="1"
     stroke="none"
     d="m 2468.3335,649.33252 c -9.5679,7.06049 -11.7766,16.12909 -11.4238,27.51086 0.8408,27.13526 0.2712,54.31421 0.2712,81.47553 0,1.79309 0,3.58618 0,5.64819 -28.186,0 -55.9258,0 -83.9678,0 0,-147.44623 0,-294.83813 0,-442.55527 27.7193,0 55.4551,0 83.7498,0 0,79.288 0,158.63092 0,237.97385 0.3599,0.19531 0.7195,0.39063 1.0793,0.58594 1.0281,-1.15753 2.064,-2.30817 3.0828,-3.47363 33.7739,-38.63282 67.5735,-77.24305 101.2581,-115.9535 2.2912,-2.63336 4.5434,-3.70471 8.0432,-3.69021 32.3264,0.13382 64.6538,0.0786 96.9807,0.0784 1.3008,0 2.6018,3e-5 5.2048,3e-5 -39.6951,41.2814 -78.6289,81.77124 -117.8159,122.52447 40.6265,67.99231 81.1985,135.89331 122.1729,204.46796 -2.4363,0.13794 -4.0069,0.30371 -5.5774,0.30444 -31.3272,0.0155 -62.6546,-0.0545 -93.981,0.10218 -3.6353,0.0182 -5.6182,-1.05683 -7.4109,-4.23865 -24.5798,-43.62427 -49.2971,-87.17114 -73.9878,-130.73285 -0.9692,-1.71021 -2.0122,-3.37866 -1.7597,-3.24146 -8.5569,7.65381 -17.1138,15.30768 -25.9185,23.21375 z"
     id="path6" /><path
     fill="#4d4e50"
     opacity="1"
     stroke="none"
     d="m 1229.2544,511.21191 c -16.922,14.07447 -24.6224,32.61988 -28.2501,53.33918 -3.8213,21.82379 -3.5658,43.80725 -2.0373,65.74939 3.9479,56.66858 43.2884,76.98162 85.9623,75.26928 26.0305,-1.04449 46.4588,-11.69311 59.3384,-35.11987 0.6389,-1.16205 2.4796,-2.36066 3.7661,-2.36682 28.1453,-0.13483 56.2913,-0.10284 85.0147,-0.10284 -0.3608,8.69201 -2.8818,16.52758 -6.622,23.83038 -18.6194,36.35553 -46.7314,62.48126 -86.0565,74.2514 -56.4072,16.88312 -110.8486,12.578 -161.8886,-19.09979 -35.9084,-22.28644 -55.2573,-55.12219 -62.562,-95.97534 -4.9674,-27.7815 -5.3836,-55.69544 -1.8182,-83.58747 6.2316,-48.74756 26.7895,-89.20013 69.3894,-116.35101 22.0968,-14.08334 46.4606,-21.40643 72.4268,-23.51456 29.9077,-2.4281 59.2741,0.15128 87.5068,10.99512 43.1123,16.55896 69.7262,48.57276 84.6757,91.28055 6.7213,19.20178 8.9403,39.19647 9.5225,59.38519 0.3261,11.31061 0.059,22.63831 0.059,34.38233 -59.1869,0 -118.3949,0 -178.2133,0 0,-18.53186 0,-37.1391 0,-56.36994 29.3706,0 59.0995,0 88.8409,0 -1.2915,-39.5841 -28.2295,-67.20361 -67.1281,-69.32202 -18.5567,-1.01059 -36.2607,1.5199 -51.9263,13.32684 z"
     id="path8" /><path
     fill="#4d4e50"
     opacity="1"
     stroke="none"
     d="m 2113.1807,683.82098 c 18.0732,17.24054 39.8979,22.57618 63.7102,21.76648 26.2456,-0.89245 46.792,-11.66266 59.8901,-35.13745 0.6465,-1.15845 2.471,-2.35699 3.7515,-2.36194 27.9934,-0.10778 55.9875,-0.0501 83.9817,-0.007 0.3064,4.9e-4 0.6125,0.22174 1.1955,0.44672 -1.6387,13.21777 -6.6699,25.20892 -13.9109,36.27514 -25.3689,38.77191 -61.1794,61.40625 -106.9209,68.06238 -35.8657,5.21893 -71.2136,3.38184 -105.0273,-10.91888 -30.8552,-13.04938 -57.5646,-31.41181 -74.4058,-61.53602 -9.696,-17.34362 -15.3031,-36.07147 -18.1762,-55.61608 -4.5403,-30.8855 -4.2446,-61.73768 1.7066,-92.43732 14.4082,-74.32767 72.9022,-123.54587 148.5983,-125.50382 30.1997,-0.78118 59.5388,2.77662 87.2568,15.4332 34.6782,15.83478 57.4629,42.92868 72.0047,77.4765 8.8906,21.12232 12.3903,43.43219 13.0173,66.19983 0.3433,12.46497 0.061,24.94721 0.061,37.72876 -59.1269,0 -118.1921,0 -178.0461,0 0,-18.65491 0,-37.35534 0,-56.48266 29.2837,0 58.8767,0 89.0788,0 -0.9228,-13.50354 -3.6848,-25.99183 -10.6279,-37.19959 -12.2327,-19.7464 -30.7654,-29.44434 -53.3015,-31.83539 -15.2556,-1.61859 -30.3782,-0.42059 -44.4544,6.3996 -20.2644,9.81854 -30.7348,27.34461 -36.499,48.14349 -5.3445,19.28327 -5.8091,39.08905 -5.4162,58.95368 0.2868,14.49927 0.7085,28.94305 5.24,42.92798 3.5441,10.93841 8.8881,20.77014 17.2932,29.22271 z"
     id="path10" /><path
     fill="#28c3f3"
     opacity="1"
     stroke="none"
     d="m 277.27139,277.18848 c 9.49482,-0.0632 18.9896,-0.17792 28.48444,-0.1811 52.98138,-0.0177 105.9631,0.11542 158.944,-0.0453 46.69702,-0.1417 89.86011,12.39593 129.48157,36.62423 57.7749,35.32907 96.04675,85.91626 114.70111,150.99872 9.27142,32.34659 11.48724,65.41049 7.39477,98.8815 -7.41412,60.63806 -33.18982,112.24756 -77.07892,154.4881 -42.19598,40.6109 -92.67205,64.45502 -151.11938,70.01617 -19.5072,1.85614 -39.24521,1.28626 -59.41608,1.75061 -0.53836,-0.0748 -0.75488,-0.13641 -0.68817,-0.55914 0.0132,-21.34692 -0.0403,-42.27112 -0.0117,-63.31421 0.0821,-0.11902 0.2746,-0.33465 0.71421,-0.22644 23.74322,0.11524 47.04541,0.84638 70.16107,-3.55609 84.63141,-16.11835 150.3258,-90.79339 154.9967,-176.65161 2.49408,-45.84573 -9.04266,-87.85376 -36.22766,-124.97391 -31.58997,-43.13495 -73.94824,-69.51495 -126.95749,-77.55075 -33.08493,-5.01541 -66.5202,-2.06503 -100.02997,-2.49719 -0.37961,-0.18064 -0.53439,-0.24661 -0.77603,-0.63873 -20.86893,-25.66178 -46.63424,-43.98865 -77.78244,-54.18723 -11.29962,-3.69974 -23.17654,-5.63647 -34.79004,-8.37759 z"
     id="path12" /><path
     fill="#4d4e50"
     opacity="1"
     stroke="none"
     d="m 1860.3041,762.64435 c -0.048,-147.73725 -0.048,-295.00336 -0.048,-442.61038 28.7685,0 57.1413,0 85.7768,0 0,147.90371 0,295.64572 0,443.83474 -1.1446,0.1175 -2.3979,0.3573 -3.6515,0.35834 -25.8275,0.0219 -51.6552,0.0355 -77.4826,-0.0315 -1.5162,-0.004 -3.0307,-0.70392 -4.5943,-1.55115 z"
     id="path14" /><path
     fill="#f15928"
     opacity="1"
     stroke="none"
     d="m 276.77612,277.20013 c 12.10877,2.72947 23.98569,4.6662 35.28531,8.36594 31.1482,10.19858 56.91351,28.52545 77.31754,54.21478 -41.55384,0.35993 -82.72968,0.36106 -123.90549,0.38678 -2.14624,0.001 -4.29239,0.21228 -6.90799,0.34131 -26.99637,0.12296 -50.5527,8.56113 -70.51729,26.01685 -24.85266,21.72949 -36.96951,49.44491 -36.98224,82.41317 -0.0348,90.09241 -0.0115,180.18482 -0.0215,270.27723 -2.3e-4,2.15924 -0.12114,4.31854 -0.63583,6.57446 -21.36615,0.0972 -42.28223,0.0978 -63.198311,0.0984 -0.07044,-1.99365 -0.202271,-3.98725 -0.202499,-5.9809 -0.01034,-90.61102 -0.0072,-181.22198 -0.0099,-271.83301 -0.0025,-85.2973 61.52911,-157.24197 145.91955,-169.6156 14.20995,-2.08349 28.89685,-0.91415 43.85864,-1.25946 z"
     id="path16" /><path
     fill="#4d4e50"
     opacity="1"
     stroke="none"
     d="m 1087.5422,507.91016 c -1e-4,2.95092 -1e-4,5.41638 -1e-4,7.02496 -9.9993,0 -19.4769,-0.36145 -28.9125,0.11255 -7.7808,0.39081 -15.6534,1.13635 -23.2403,2.82562 -28.3562,6.3136 -44.80501,24.32941 -49.22597,52.83148 -1.85492,11.95911 -2.8512,24.16468 -2.92731,36.26654 -0.31677,50.32221 -0.13403,100.64752 -0.1347,150.97174 -6e-5,1.95081 -6e-5,3.90168 -6e-5,6.03052 -29.09607,0 -57.66303,0 -86.48566,0 0,-109.50671 0,-218.74023 0,-328.31671 27.26886,0 54.31476,0 81.85083,0 0,18.39526 0,36.64337 0,54.89148 0.35938,0.14133 0.71881,0.28268 1.07819,0.42404 1.26544,-1.98974 2.47461,-4.01807 3.8067,-5.96219 4.42169,-6.45324 8.79858,-12.93997 13.35187,-19.29983 20.13291,-28.12061 48.34321,-38.91135 81.94941,-38.01477 2.7966,0.0746 5.589,0.30398 8.8898,0.48996 0,26.66055 0,52.94986 -2e-4,79.72461 z"
     id="path18" /><path
     fill="#683291"
     opacity="1"
     stroke="none"
     d="m 428.21371,789.71527 c 7.7e-4,22.05921 0.4983,44.07056 -0.28457,66.03638 -2.46616,69.19916 -34.55115,120.68786 -96.33811,151.39685 -95.28856,47.3597 -210.61895,-5.7592 -238.540935,-108.45606 -4.037476,-14.84979 -6.02678,-30.00177 -6.043145,-45.39453 -0.02215,-20.83154 0.01302,-41.66308 0.558594,-62.96411 21.478366,-0.44732 42.421756,-0.42511 63.407876,0.0698 0.0542,20.80029 -0.23721,41.13458 0.21487,61.45239 0.20221,9.08825 0.99765,18.35394 3.06534,27.17792 10.21227,43.58111 48.57704,76.8894 92.34674,80.82898 64.2876,5.78637 117.41303,-42.83442 117.43723,-107.46326 0.008,-20.82666 0.0584,-41.65326 0.54937,-62.50867 21.41373,-0.12122 42.36738,-0.21362 63.32105,-0.30603 0,0 0.21652,0.0616 0.30569,0.13031 z"
     id="path20" /><path
     fill="#4e4f51"
     opacity="1"
     stroke="none"
     d="m 1119.0732,1199.085 c -5.2524,14.0578 -10.5178,27.6982 -15.4436,41.4604 -1.2186,3.4049 -2.8615,4.6272 -6.4242,4.3696 -4.476,-0.3236 -9.0057,-0.2794 -13.4887,-0.01 -3.143,0.1907 -4.6148,-0.8108 -5.7533,-3.8666 -18.9077,-50.7514 -37.9544,-101.451 -56.9812,-152.1582 -0.7327,-1.9528 -1.5775,-3.8635 -3.3661,-5.6212 0,53.6279 0,107.2559 0,161.2302 -8.5173,0 -16.4187,0 -24.73762,0 0,-65.4256 0,-130.9547 0,-197.047 11.24032,0 22.35612,-0.1273 33.45992,0.1773 1.2491,0.034 2.9604,2.3087 3.563,3.8861 6.8174,17.8479 13.4487,35.7666 20.1519,53.6582 12.9394,34.5367 25.8914,69.0689 38.849,103.5989 0.4039,1.0762 0.9283,2.1072 1.742,3.9358 4.241,-11.1353 8.2661,-21.5952 12.2129,-32.085 16.2042,-43.0679 32.4121,-86.1345 48.5135,-129.2408 1.0933,-2.9269 2.4475,-4.0955 5.7016,-4.0241 10.4568,0.2291 20.9217,0.085 31.6309,0.085 0,65.9369 0,131.3459 0,197.079 -8.0694,0 -15.9874,0 -24.4874,0 0,-54.122 0,-108.2794 0,-162.4369 -0.375,-0.069 -0.7501,-0.1372 -1.1251,-0.2058 -14.635,38.9466 -29.27,77.8933 -44.0175,117.2123 z"
     id="path22" /><path
     fill="#4f5052"
     opacity="1"
     stroke="none"
     d="m 2434.313,1280.9766 c 8.4348,0.9782 16.5818,3.0875 24.5183,2.4735 17.3547,-1.3428 28.0308,-11.8208 33.1255,-28.1256 3.3599,-10.7524 3.6997,-21.8468 3.3093,-33.0446 -0.5554,0.058 -1.0273,-0.012 -1.1064,0.1332 -12.189,22.2883 -41.0811,29.6483 -66.8084,20.0163 -22.9707,-8.5996 -34.7173,-26.6848 -38.9914,-49.8458 -4.2254,-22.8952 -2.0059,-45.181 10.3701,-65.5238 14.6513,-24.0826 46.0188,-34.8321 72.5613,-25.2339 9.1958,3.3253 14.7053,7.7942 23.9411,19.7858 0,-7.059 0,-13.1786 0,-19.3999 7.8362,0 14.9165,0 22.5061,0 0,1.8993 0,3.5226 0,5.146 5e-4,41.488 0.3159,82.9802 -0.2102,124.4615 -0.1394,11.0027 -1.7417,22.2806 -4.6474,32.8911 -5.3511,19.5392 -19.2483,31.1047 -38.7613,35.6025 -20.3476,4.6904 -40.4504,3.9812 -59.4509,-5.5653 -13.4373,-6.7513 -21.2432,-17.7399 -22.5876,-33.4851 7.7407,0 15.291,0 23.3586,0 1.5933,10.4221 9.0137,15.9998 18.8733,19.7141 m 14.6018,-55.3929 c 17.905,0.7808 31.0151,-6.982 38.5837,-23.0181 8.6148,-18.2521 9.032,-37.3206 2.8033,-56.3776 -5.4883,-16.7907 -18.4629,-26.2233 -35.8143,-26.8644 -16.465,-0.6086 -30.7761,8.0349 -37.3049,23.5101 -8.3613,19.8196 -7.7615,39.9976 0.1909,59.7404 5.4556,13.5443 15.7425,21.5842 31.5413,23.0096 z"
     id="path24" /><path
     fill="#4e4f51"
     opacity="1"
     stroke="none"
     d="m 1511.4766,1180.5591 c -5.2163,20.3546 -10.3383,40.3137 -15.2271,60.3298 -0.7255,2.9706 -1.7021,4.1836 -4.9117,4.0296 -5.8197,-0.2793 -11.6662,-0.2005 -17.494,-0.027 -2.8786,0.086 -4.297,-0.6026 -5.2792,-3.6982 -13.4615,-42.431 -27.1164,-84.8005 -40.7273,-127.1842 -1.2145,-3.7816 -2.4556,-7.5547 -3.8191,-11.746 8.7682,0 17.1493,0 25.9943,0 10.6365,38.3997 21.3088,76.9285 31.9812,115.4573 0.3219,0.028 0.6438,0.056 0.9657,0.084 9.4477,-38.3868 18.8956,-76.7735 28.5136,-115.8522 7.939,0 16.0467,-0.1359 24.1365,0.1824 0.9446,0.037 2.2222,2.4692 2.6178,3.9813 6.9806,26.6797 13.8486,53.389 20.7406,80.0919 2.6945,10.4392 5.3881,20.8787 8.4473,32.7329 3.0661,-10.9829 5.7929,-20.6031 8.4359,-30.2463 7.5968,-27.7178 15.2051,-55.4326 22.6653,-83.1872 0.7452,-2.7727 1.8392,-3.7377 4.7165,-3.6444 6.6428,0.2159 13.2975,0.068 20.7389,0.068 -15.2159,47.8944 -30.2661,95.2667 -45.3425,142.7218 -8.4275,0 -16.5523,0 -25.1947,0 -9.6123,-37.2447 -19.2231,-74.4829 -28.8338,-111.7209 -0.3288,-0.056 -0.6577,-0.1128 -0.9865,-0.1692 -3.9894,15.8063 -7.9787,31.6125 -12.1377,47.7959 z"
     id="path26" /><path
     fill="#4f4f51"
     opacity="1"
     stroke="none"
     d="m 2008.7224,1122.29 c 19.9909,27.4356 21.0114,71.71 2.4974,99.2963 -18.111,26.9861 -58.0827,35.1035 -85.1097,17.0383 -4.7211,-3.1554 -8.6774,-7.455 -13.4375,-11.6207 0,5.8901 0,11.5924 0,17.5535 -8.0098,0 -15.436,0 -23.2902,0 0,-65.4557 0,-130.9699 0,-196.8081 7.4394,0 15.0044,0 23.1059,0 0,24.049 0,47.9253 0,73.2893 1.5244,-2.0354 2.1743,-2.8488 2.7666,-3.7022 7.3243,-10.5506 17.8887,-15.7712 30.168,-17.6106 24.8881,-3.7284 46.6447,1.8622 63.2995,22.5642 m -16.4912,19.0983 c -8.2961,-14.9626 -21.2279,-22.2377 -38.1031,-21.9796 -16.4379,0.2515 -28.9427,7.9531 -35.7957,22.8945 -9.3543,20.3949 -9.5223,41.4617 -0.091,61.8108 7.8483,16.933 22.4408,23.8445 40.7589,23.082 17.3251,-0.721 29.399,-9.5014 35.2696,-25.5382 7.2859,-19.9027 7.625,-40.0013 -2.0391,-60.2695 z"
     id="path28" /><path
     fill="#4e4f51"
     opacity="1"
     stroke="none"
     d="m 2111,1180.5242 c -15.6189,-3e-4 -30.7378,-3e-4 -45.7603,-3e-4 -3.7961,22.6621 13.3577,44.1916 36.7825,46.3174 5.7349,0.5205 11.6912,0.2346 17.3797,-0.6952 12.833,-2.098 21.3339,-9.8169 25.121,-22.1766 1.1827,-3.859 2.876,-4.8563 6.6063,-4.6572 5.7897,0.309 11.6083,0.082 17.4248,0.082 -0.6966,17.9704 -15.9263,37.6891 -34.5496,44.3168 -17.9126,6.3745 -36.0659,6.2832 -53.8164,-0.5289 -18.8225,-7.2234 -29.8071,-22.0133 -35.6627,-40.5823 -8.1628,-25.8851 -7.7359,-51.3484 7.6788,-74.776 17.7615,-26.994 52.3796,-37.0576 81.1213,-23.9027 20.7491,9.4968 30.7225,27.3197 35.3977,48.5062 1.9549,8.8586 2.2854,18.0756 3.4688,28.0973 -20.8899,0 -40.791,0 -61.1919,-10e-5 m -32.9192,-50.9596 c -8.3933,8.103 -12.5923,18.0359 -13.4536,29.8878 27.4268,0 54.3345,0 81.7563,0 -1.3916,-15.8226 -7.9492,-28.2501 -22.0244,-35.3099 -16.0002,-8.0256 -31.5647,-6.5517 -46.2783,5.4221 z"
     id="path30" /><path
     fill="#4e4f51"
     opacity="1"
     stroke="none"
     d="m 1643.9817,1224.01 c -22.1498,-31.5189 -21.0325,-76.6332 2.3557,-103.4581 22.5081,-25.8157 63.7401,-29.8367 88.7031,-8.3224 14.7499,12.712 21.3233,29.7795 23.8379,48.599 0.834,6.241 0.9437,12.5788 1.4253,19.4526 -35.9374,0 -71.3133,0 -106.635,0 -2.0322,21.6481 9.9038,38.8997 26.9729,44.4341 9.0511,2.9345 18.2767,3.3515 27.6156,1.4942 12.9932,-2.5843 21.38,-10.3477 25.1105,-22.9104 0.9673,-3.2568 2.3824,-4.0969 5.5326,-3.9751 6.1151,0.2362 12.2458,0.069 18.4138,0.069 -2.6406,22.3777 -18.6608,40.6083 -40.8799,46.3162 -14.4861,3.7213 -29.0646,3.3756 -43.4221,-0.936 -11.8701,-3.5648 -21.3883,-10.5918 -29.0304,-20.7631 m 90.3182,-69.7783 c -3.4571,-22.1674 -23.1964,-36.9788 -45.0582,-34.7046 -21.0487,2.1896 -35.7648,20.7048 -35.5839,40.0161 26.9464,0 53.8937,0 81.3149,0 -0.1665,-1.6415 -0.3112,-3.0682 -0.6728,-5.3115 z"
     id="path32" /><path
     fill="#4e4f51"
     opacity="1"
     stroke="none"
     d="m 2276.2678,1114.2771 c 16.8457,-17.1638 49.0166,-21.0818 69.137,-8.5278 12.6023,7.863 17.3301,20.2716 18.458,34.2148 0.7505,9.275 0.4619,18.6412 0.4827,27.9669 0.053,23.6544 0.017,47.309 0.017,70.9635 0,1.8046 0,3.6092 0,5.6787 -7.8608,0 -15.2714,0 -23.373,0 0,-1.768 0,-3.5256 0,-5.2832 0,-30.1511 0,-60.3022 -0.01,-90.4533 -0.01,-18.3399 -10.7619,-29.216 -29.0966,-29.4597 -24.0477,-0.3196 -41.2815,15.3935 -41.8501,39.4444 -0.6302,26.6382 -0.2325,53.3009 -0.2815,79.9529 0,1.7988 -3e-4,3.5975 -3e-4,5.7294 -7.9861,0 -15.5398,0 -23.3921,0 0,-47.337 0,-94.5661 0,-142.1841 7.0083,0 14.0633,0 21.6587,0 0,6.9089 0,13.9501 0,22.514 3.2862,-4.2301 5.6443,-7.266 8.2478,-10.5565 z"
     id="path34" /><path
     fill="#4e4f51"
     opacity="1"
     stroke="none"
     d="m 1298.832,1209.8486 c -8.287,21.2505 -16.4341,42.1408 -24.6583,63.0008 -1.0939,2.7744 -2.5081,5.432 -3.8957,8.0798 -9.34,17.822 -21.9269,24.6024 -46.6414,19.4932 -1.3345,-0.276 -3.1545,-2.433 -3.2366,-3.805 -0.3569,-5.9624 -0.1532,-11.9583 -0.1532,-18.492 2.9328,0.8095 5.4265,1.5196 7.932,2.186 11.165,2.969 20.3106,-1.1576 24.9877,-11.7109 3.2955,-7.4361 6.189,-15.0586 8.9954,-22.6958 0.5371,-1.4615 0.2425,-3.5428 -0.3609,-5.0631 -17.4043,-43.8587 -34.8979,-87.6819 -52.3718,-131.5129 -0.906,-2.2729 -1.7645,-4.5649 -2.8556,-7.3938 8.4913,0 16.3054,-0.2038 24.0894,0.1891 1.3908,0.07 3.2821,2.3839 3.8858,4.0456 7.9427,21.8562 15.6897,43.7834 23.4981,65.6884 5.2987,14.8648 10.6153,29.7232 15.9333,44.581 0.1953,0.5459 0.489,1.0566 1.1912,2.5494 3.829,-11.1003 7.3342,-21.2112 10.8049,-31.3339 9.3725,-27.3357 18.7743,-54.6613 28.0283,-82.0372 0.9632,-2.8489 2.2902,-3.8518 5.2851,-3.7532 6.7697,0.2228 13.552,0.07 20.9781,0.07 -13.9418,36.2866 -27.631,71.9157 -41.4358,107.9143 z"
     id="path36" /><path
     fill="#4f5052"
     opacity="1"
     stroke="none"
     d="m 1839.2692,1244.8406 c -4.9812,0.6327 -4.0973,-2.5939 -4.0978,-5.1251 -0.01,-43.7913 -0.01,-87.5824 0,-131.3737 10e-5,-18.4822 -10e-5,-36.9645 -10e-5,-55.4467 0,-1.6258 0,-3.2517 0,-5.1723 8.0108,0 15.5967,0 23.5021,0 0,65.5831 0,131.0716 0,197.1183 -6.3813,0 -12.6559,0 -19.3993,-5e-4 z"
     id="path38" /><path
     fill="#4d4e50"
     opacity="1"
     stroke="none"
     d="m 1804.3757,1047.804 c 0.4745,1.4072 0.6469,2.5615 0.6471,3.7157 0.013,62.9288 0.011,125.8577 0.011,188.7866 0,1.3061 0,2.6123 0,4.2224 -7.8904,0 -15.4367,0 -23.281,0 0,-65.5585 0,-130.9192 0,-196.9777 7.4171,0 14.8287,0 22.623,0.253 z"
     id="path40" /><path
     fill="#231f20"
     opacity="1"
     stroke="none"
     d="m 150.93068,789.93091 c -20.94338,-0.0222 -41.88677,-0.0444 -63.287217,-0.0689 -0.51329,-21.01129 -0.569519,-42.0202 -0.529465,-63.50104 21.012372,-0.47247 41.928452,-0.47308 63.406022,-0.49133 0.56149,-0.0176 0.73019,0.19586 0.638,0.64783 -0.0677,21.35961 -0.0432,42.26721 -0.0515,63.25146 -0.0328,0.0766 -0.17586,0.16199 -0.17586,0.16199 z"
     id="path42" /><path
     fill="#4c4d4f"
     opacity="1"
     stroke="none"
     d="m 2216.3193,1233.9792 c 3e-4,3.7811 3e-4,7.0652 3e-4,10.5979 -7.9446,0 -15.3518,0 -23.0513,0 0,-47.4959 0,-94.832 0,-142.403 7.6104,0 15.0166,0 23.051,0 0,43.8759 0,87.5921 0,131.8051 z"
     id="path44" /><path
     fill="#4f5052"
     opacity="1"
     stroke="none"
     d="m 2549.3835,1218.2902 c -0.2907,-3.0382 0.3528,-4.3858 3.4466,-4.3163 8.7991,0.1977 17.6057,0.069 26.8132,0.069 0,10.1303 0,20.1499 0,30.488 -9.7917,0 -19.675,0 -30.2602,0 0,-8.6009 0,-17.1878 4e-4,-26.2411 z"
     id="path46" /><path
     fill="#4f5052"
     opacity="1"
     stroke="none"
     d="m 2215.925,1048.0239 c 0.2747,9.4601 0.2747,18.58 0.2747,27.979 -7.7666,0 -15.3374,0 -23.0469,0 0,-9.4539 0,-18.7367 0,-28.3191 7.6165,0 15.0572,0 22.7722,0.3401 z"
     id="path48" /><path
     fill="#f9d307"
     opacity="1"
     stroke="none"
     d="m 390.6199,340.39203 c 14.07157,18.07855 25.23652,37.58267 30.69541,59.65826 3.33111,13.47089 6.31656,27.45783 6.40048,41.23163 0.57571,94.4563 0.34293,188.91754 0.4462,283.80432 0.0756,0.42713 -0.11689,0.64276 -0.65268,0.67426 -21.4462,-0.0451 -42.35663,-0.12177 -63.35816,-0.62635 -0.10064,-93.2052 -0.11874,-185.98254 -0.11074,-278.75988 10e-4,-14.51285 -2.63074,-28.53983 -8.79773,-41.64078 -19.13434,-40.6485 -51.33014,-62.00876 -96.20777,-64.24023 2.14618,-0.11335 4.29233,-0.32428 6.43857,-0.32563 41.17581,-0.0257 82.35165,-0.0268 123.99234,-0.0606 0.61969,0.0384 0.77447,0.10436 1.15408,0.285 z"
     id="path54" /><path
     fill="#231f20"
     opacity="1"
     stroke="none"
     d="m 364.24228,725.56207 c 20.9104,0.0767 41.82083,0.15332 63.18497,0.31745 0.50723,21.01159 0.56073,41.93579 0.54748,63.28271 -21.02038,0.51514 -41.97403,0.60754 -63.45392,0.69568 -0.52624,-0.004 -0.58035,-0.14191 -0.51764,-0.58203 0.011,-21.39215 -0.0407,-42.34412 -0.0128,-63.40308 0.0796,-0.10705 0.25186,-0.31073 0.25186,-0.31073 z"
     id="path56" /><path
     fill="#2faea1"
     opacity="1"
     stroke="none"
     d="m 364.00317,789.27582 c -70.69503,0.461 -141.32737,0.48187 -212.41179,0.45959 -0.47656,-20.95074 -0.50105,-41.85834 -0.43336,-63.21795 1.07957,-0.55219 2.06694,-0.7403 3.05431,-0.74024 69.59561,0.002 139.1912,0.0195 209.24269,0.11902 0.5075,21.03552 0.55917,41.98749 0.54815,63.37958 z"
     id="path70" /></g>
</svg>
